<?xml version="1.0" standalone="no"?>
<!DOCTYPE svg PUBLIC "-//W3C//DTD SVG 20010904//EN"
 "http://www.w3.org/TR/2001/REC-SVG-20010904/DTD/svg10.dtd">
<svg version="1.0" xmlns="http://www.w3.org/2000/svg"
 width="1050.000000pt" height="1050.000000pt" viewBox="0 0 1050.000000 1050.000000"
 preserveAspectRatio="xMidYMid meet">

<g transform="translate(0.000000,1050.000000) scale(0.100000,-0.100000)"
fill="#000000" stroke="none">
<path d="M4043 9821 c-81 -22 -242 -102 -316 -156 l-47 -35 38 -58 c226 -336
472 -896 665 -1512 79 -251 98 -321 84 -313 -7 3 -37 23 -67 43 -260 175 -583
295 -957 356 -133 22 -545 30 -711 15 -366 -35 -586 -98 -907 -260 -277 -141
-466 -274 -669 -471 -216 -210 -346 -388 -477 -655 -163 -332 -243 -663 -255
-1055 -14 -421 89 -940 289 -1450 377 -967 1127 -2016 2121 -2969 364 -349
546 -493 739 -585 205 -98 355 -130 562 -123 125 4 153 8 260 41 428 131 805
135 1043 13 180 -92 214 -108 285 -132 166 -55 363 -77 509 -56 137 19 467
132 676 232 681 323 1274 933 1743 1792 195 358 330 689 474 1163 420 1384
402 2572 -51 3478 -98 196 -257 428 -363 531 -23 21 -41 42 -41 46 0 3 37 31
83 61 255 170 586 479 753 703 160 214 283 436 353 638 41 119 41 124 -11 132
-222 31 -749 44 -1003 26 -683 -50 -1311 -214 -1947 -507 -409 -189 -864 -474
-1172 -736 -78 -66 -107 -83 -245 -143 -86 -37 -202 -91 -258 -120 l-102 -51
-11 55 c-101 504 -268 1095 -416 1469 -137 347 -256 529 -382 584 -66 29 -179
33 -269 9z"/>
</g>
</svg>
