<?xml version="1.0" standalone="no"?>
<!DOCTYPE svg PUBLIC "-//W3C//DTD SVG 20010904//EN"
 "http://www.w3.org/TR/2001/REC-SVG-20010904/DTD/svg10.dtd">
<svg version="1.0" xmlns="http://www.w3.org/2000/svg"
 width="1300.000000pt" height="1300.000000pt" viewBox="0 0 1300.000000 1300.000000"
 preserveAspectRatio="xMidYMid meet">

<g transform="translate(0.000000,1300.000000) scale(0.100000,-0.100000)"
fill="#000000" stroke="none">
<path d="M6240 11770 c-58 -4 -19 -6 125 -7 116 -1 222 -2 238 -3 l27 -2 -5
-67 c-4 -36 -9 -77 -11 -91 -3 -14 -8 -54 -11 -90 -2 -36 -10 -90 -17 -120
l-12 -55 -50 -6 -49 -6 60 -2 c152 -4 412 -58 580 -121 43 -16 82 -27 86 -25
4 3 9 1 11 -3 1 -5 59 -36 128 -68 316 -151 611 -384 911 -719 237 -265 504
-680 681 -1060 79 -171 95 -206 143 -330 25 -66 55 -140 65 -165 18 -42 19
-43 17 -13 -1 17 -5 29 -8 27 -10 -6 -20 42 -13 61 4 9 13 14 21 11 8 -3 12
-2 8 3 -3 5 9 21 26 35 17 14 62 63 100 109 84 99 79 93 114 145 29 44 51 50
49 14 0 -12 4 -18 9 -15 5 3 6 -4 2 -17 -4 -13 -3 -20 2 -17 5 3 15 -11 22
-31 7 -20 19 -51 27 -68 7 -17 39 -103 69 -190 53 -152 64 -212 38 -207 -8 2
-10 -4 -6 -14 5 -12 3 -14 -7 -8 -9 5 -11 4 -6 -3 11 -17 -66 -115 -181 -230
-97 -98 -132 -118 -119 -69 3 13 1 16 -5 10 -6 -6 4 -62 28 -159 40 -162 40
-160 50 -151 3 4 1 17 -5 30 -6 12 -16 47 -22 77 -6 30 -16 67 -22 82 -9 25
-6 31 53 85 65 60 143 140 169 175 8 11 27 34 41 52 14 17 34 45 44 63 10 18
22 30 26 27 6 -3 22 -59 33 -115 2 -8 8 -27 14 -42 7 -16 12 -33 12 -39 0 -6
3 -9 6 -5 8 7 -63 247 -128 436 -95 276 -174 466 -301 726 -278 567 -652 1073
-1055 1426 -162 142 -149 132 -155 116 -3 -8 -1 -20 5 -28 8 -11 9 -10 4 4 -4
12 -2 17 6 15 26 -9 17 -59 -27 -159 -26 -56 -62 -126 -81 -156 -19 -29 -34
-57 -34 -61 0 -4 -6 -15 -13 -24 -12 -15 -16 -15 -43 9 -16 14 -28 29 -27 34
2 4 -5 5 -14 2 -12 -5 -15 -2 -10 10 3 9 3 16 -1 16 -20 -3 -35 5 -84 44 -64
51 -235 167 -247 167 -5 0 -11 7 -15 15 -3 8 -9 14 -13 13 -4 -2 -10 1 -12 5
-6 12 61 157 71 157 5 0 7 4 3 9 -5 8 14 67 48 151 11 27 13 36 15 63 1 9 7
17 13 17 5 0 8 -4 4 -9 -8 -14 13 -23 31 -13 12 7 -11 22 -95 66 -61 31 -116
54 -121 51 -6 -3 -10 -2 -10 3 0 31 -510 192 -607 192 -34 0 -4 -10 73 -25
156 -29 214 -48 214 -68 0 -28 -56 -237 -76 -282 -10 -22 -19 -42 -19 -45 -21
-62 -33 -79 -49 -63 -3 4 -17 8 -29 10 -12 2 -49 10 -82 18 -33 8 -104 21
-158 29 -53 7 -99 15 -102 18 -3 3 1 43 9 89 14 81 36 270 36 311 0 19 5 20
83 15 124 -8 14 9 -140 22 -128 11 -207 12 -353 1z m939 -137 c6 -10 11 -12
11 -5 0 6 5 12 11 12 5 0 7 -5 3 -12 -5 -7 -3 -8 5 -4 7 5 24 3 39 -2 128 -49
169 -66 181 -75 7 -7 19 -12 25 -12 28 -2 136 -59 136 -72 0 -34 -124 -364
-147 -392 -4 -6 -115 50 -124 62 -3 5 -8 8 -10 6 -10 -5 -49 13 -44 22 3 5 -1
6 -10 2 -10 -3 -21 0 -25 7 -4 7 -18 14 -31 15 -39 4 -40 5 -34 16 4 6 13 8
19 6 7 -3 13 0 13 6 0 7 -12 13 -25 14 -15 0 -20 -2 -13 -7 10 -5 9 -9 -3 -13
-9 -4 -41 3 -71 15 l-54 20 14 28 c25 49 93 269 100 325 8 57 17 67 34 38z
m1011 -568 c19 -20 21 -27 10 -40 -7 -8 -8 -15 -2 -15 5 0 13 7 16 16 5 12 14
7 46 -25 22 -22 40 -37 40 -33 1 10 24 -31 25 -43 0 -5 9 -9 19 -7 13 3 17 -1
13 -12 -4 -9 -3 -15 2 -13 4 1 24 -13 45 -30 20 -18 35 -33 33 -33 -2 0 25
-29 60 -65 39 -39 61 -69 57 -76 -4 -7 -3 -9 3 -6 15 10 55 -37 47 -56 -3 -9
-11 -14 -17 -10 -6 3 -7 1 -3 -5 12 -20 -56 -108 -75 -97 -4 3 -11 1 -14 -5
-4 -6 -2 -9 3 -8 24 7 13 -14 -38 -72 -30 -34 -57 -65 -60 -69 -3 -3 -18 -17
-33 -30 l-27 -24 -25 23 c-24 22 -35 47 -16 36 11 -7 8 20 -3 31 -4 4 -7 3 -6
-2 7 -32 -8 -22 -75 49 -41 43 -72 82 -69 87 3 5 -3 6 -13 2 -10 -3 -15 -3
-11 2 4 4 -9 22 -29 39 -74 61 -134 126 -127 137 4 8 9 7 16 -2 7 -11 8 -9 4
4 -4 11 5 35 22 60 35 52 104 195 129 265 10 28 20 52 24 52 3 0 16 -11 29
-25z m483 -496 c15 -17 24 -36 20 -42 -3 -6 -1 -7 5 -3 6 3 16 -3 23 -16 6
-12 20 -31 30 -42 11 -11 19 -23 19 -27 0 -5 9 -17 21 -28 13 -11 18 -24 14
-32 -5 -7 -4 -10 2 -6 11 7 46 -30 39 -42 -3 -4 1 -17 10 -27 14 -18 15 -18 4
4 -16 32 -5 27 18 -9 l20 -32 -31 -51 c-34 -54 -128 -181 -172 -231 -15 -16
-36 -41 -46 -54 -16 -19 -22 -21 -34 -11 -8 7 -12 16 -9 21 3 5 1 9 -3 9 -13
0 -45 59 -38 70 3 5 0 7 -8 4 -9 -3 -28 16 -52 53 -21 32 -38 60 -38 63 0 3
-7 11 -16 18 -13 11 -13 12 -1 7 13 -6 13 -5 0 7 -8 7 -32 32 -53 56 l-38 43
70 72 c38 40 80 86 93 104 81 111 114 153 118 153 3 0 18 -14 33 -31z m267
-361 c0 -5 12 -26 28 -46 15 -20 20 -32 12 -27 -8 4 -2 -4 13 -18 26 -25 30
-56 5 -41 -6 4 -6 -2 1 -15 13 -24 17 -25 27 -9 4 7 3 8 -4 4 -7 -4 -12 -2
-12 3 0 6 4 11 10 11 13 0 41 -56 32 -65 -4 -5 -1 -4 7 0 11 6 13 4 8 -9 -4
-9 -3 -15 2 -12 11 7 53 -72 45 -85 -3 -5 0 -8 8 -7 7 2 12 -5 12 -14 -1 -10
1 -16 5 -13 4 2 15 -10 25 -27 15 -25 16 -32 5 -39 -8 -5 -10 -9 -5 -9 10 0
-33 -58 -94 -124 -104 -113 -197 -198 -205 -186 -3 5 -3 15 1 22 4 6 3 8 -3 5
-14 -9 -44 67 -37 90 4 14 4 15 -4 4 -12 -16 -27 3 -16 21 4 7 3 8 -4 4 -7 -4
-22 14 -38 46 -15 29 -45 81 -66 115 -22 34 -37 67 -33 73 4 6 3 10 -2 9 -23
-4 -21 4 8 36 66 73 86 96 122 142 57 72 117 166 117 182 0 11 3 11 15 1 8 -7
15 -17 15 -22z m298 -508 c16 -30 30 -58 30 -63 1 -4 9 -18 18 -32 9 -13 12
-30 8 -36 -4 -7 -3 -9 3 -6 11 7 36 -40 28 -53 -3 -5 -2 -10 2 -12 12 -5 63
-103 63 -119 0 -12 -2 -12 -9 -1 -7 11 -9 11 -14 -1 -4 -11 0 -15 13 -12 11 2
22 0 24 -4 12 -19 14 -66 4 -85 -10 -19 -86 -124 -98 -136 -3 -3 -36 -40 -73
-82 -38 -43 -81 -87 -97 -98 l-29 -21 -21 48 c-11 26 -18 53 -15 60 2 8 0 11
-5 8 -6 -3 -11 -1 -11 4 -2 18 -5 24 -32 85 -15 32 -24 63 -20 69 4 6 1 7 -7
2 -8 -5 -11 -3 -8 6 3 8 12 13 19 11 8 -2 10 0 6 5 -5 4 -14 8 -20 8 -16 0
-59 84 -51 97 4 6 2 8 -3 5 -6 -4 -20 14 -32 41 l-20 47 102 101 c106 105 167
171 167 180 0 13 36 52 42 46 3 -4 19 -32 36 -62z"/>
<path d="M7343 11152 c-9 -5 -6 -12 10 -21 19 -13 21 -12 10 1 -7 8 -10 18 -6
21 9 9 1 8 -14 -1z"/>
<path d="M8170 11066 c0 -2 8 -10 18 -17 15 -13 16 -12 3 4 -13 16 -21 21 -21
13z"/>
<path d="M8247 10963 c-7 -14 -2 -33 8 -32 6 1 9 5 7 11 -1 5 3 8 10 5 7 -2
12 -10 10 -16 -1 -7 2 -9 8 -6 8 5 6 13 -6 26 -18 20 -30 24 -37 12z"/>
<path d="M8390 10856 c0 -2 8 -10 18 -17 15 -13 16 -12 3 4 -13 16 -21 21 -21
13z"/>
<path d="M8404 10808 c-4 -7 -3 -10 1 -5 5 4 16 0 26 -9 14 -12 18 -13 25 -2
4 7 3 10 -1 5 -5 -4 -16 0 -26 9 -14 12 -18 13 -25 2z"/>
<path d="M8410 10786 c0 -2 8 -10 18 -17 15 -13 16 -12 3 4 -13 16 -21 21 -21
13z"/>
<path d="M8055 10660 c10 -11 20 -20 23 -20 3 0 -3 9 -13 20 -10 11 -20 20
-23 20 -3 0 3 -9 13 -20z"/>
<path d="M8026 10651 c-3 -5 1 -14 9 -21 8 -7 15 -9 15 -4 0 5 5 2 11 -6 9
-13 10 -13 6 0 -2 8 -10 15 -18 15 -8 1 -13 6 -11 13 2 14 -4 16 -12 3z"/>
<path d="M8116 10592 c-3 -6 0 -15 8 -21 10 -9 17 -7 27 6 7 10 9 15 5 11 -5
-4 -15 -3 -22 3 -7 6 -14 6 -18 1z"/>
<path d="M8210 10506 c0 -2 8 -10 18 -17 15 -13 16 -12 3 4 -13 16 -21 21 -21
13z"/>
<path d="M8206 10472 c-3 -5 1 -9 9 -9 8 0 12 4 9 9 -3 4 -7 8 -9 8 -2 0 -6
-4 -9 -8z"/>
<path d="M8280 10436 c0 -2 8 -10 18 -17 15 -13 16 -12 3 4 -13 16 -21 21 -21
13z"/>
<path d="M8653 10543 c0 -9 4 -10 14 -2 7 6 13 12 13 14 0 1 -6 2 -13 2 -8 0
-14 -6 -14 -14z"/>
<path d="M8746 10427 c3 -10 9 -15 12 -12 3 3 0 11 -7 18 -10 9 -11 8 -5 -6z"/>
<path d="M8806 10187 c3 -10 9 -15 12 -12 3 3 0 11 -7 18 -10 9 -11 8 -5 -6z"/>
<path d="M8505 10100 c-4 -6 -1 -9 7 -8 7 2 12 -3 10 -11 -3 -17 17 -43 29
-35 5 3 9 11 9 17 0 8 -3 8 -9 -2 -6 -9 -10 -10 -16 -2 -4 7 -1 20 6 29 7 9 9
14 5 10 -5 -4 -15 -3 -22 3 -8 7 -14 7 -19 -1z"/>
<path d="M8970 10061 c0 -6 4 -13 10 -16 6 -3 7 1 4 9 -7 18 -14 21 -14 7z"/>
<path d="M9066 9957 c3 -10 9 -15 12 -12 3 3 0 11 -7 18 -10 9 -11 8 -5 -6z"/>
<path d="M8701 9804 c0 -11 3 -14 6 -6 3 7 2 16 -1 19 -3 4 -6 -2 -5 -13z"/>
<path d="M8766 9703 c-6 -14 -5 -15 5 -6 7 7 10 15 7 18 -3 3 -9 -2 -12 -12z"/>
<path d="M8840 9621 c0 -5 5 -13 10 -16 6 -3 10 -2 10 4 0 5 -4 13 -10 16 -5
3 -10 2 -10 -4z"/>
<path d="M8843 9564 c1 -21 19 -26 34 -9 4 4 3 5 -4 1 -6 -3 -16 2 -22 11 -9
16 -10 16 -8 -3z"/>
<path d="M9294 9509 c-3 -6 -2 -15 3 -20 5 -5 9 -1 9 11 0 23 -2 24 -12 9z"/>
<path d="M8923 9394 c0 -9 4 -11 12 -4 7 5 14 9 16 7 2 -1 3 0 1 2 -7 11 -29
7 -29 -5z"/>
<path d="M9016 9303 c-6 -14 -5 -15 5 -6 7 7 10 15 7 18 -3 3 -9 -2 -12 -12z"/>
<path d="M9299 9293 c-13 -16 -12 -17 4 -4 16 13 21 21 13 21 -2 0 -10 -8 -17
-17z"/>
<path d="M9345 9303 c3 -3 0 -11 -5 -18 -7 -8 -5 -12 4 -12 14 0 16 22 3 32
-4 3 -5 2 -2 -2z"/>
<path d="M9306 9252 c-3 -5 1 -9 9 -9 8 0 12 4 9 9 -3 4 -7 8 -9 8 -2 0 -6 -4
-9 -8z"/>
<path d="M9219 9213 c-13 -16 -12 -17 4 -4 16 13 21 21 13 21 -2 0 -10 -8 -17
-17z"/>
<path d="M9261 9207 c-8 -10 -7 -14 2 -14 8 0 14 6 14 14 0 7 -1 13 -2 13 -2
0 -8 -6 -14 -13z"/>
<path d="M9223 9177 c0 -8 6 -14 14 -14 9 0 10 4 2 14 -6 7 -12 13 -14 13 -1
0 -2 -6 -2 -13z"/>
<path d="M6055 11753 c-75 -11 -319 -68 -405 -95 -666 -212 -1270 -702 -1762
-1428 -210 -311 -396 -665 -550 -1050 -70 -173 -199 -552 -212 -620 -7 -34 -7
-35 8 -10 8 14 12 28 10 32 -2 4 2 24 10 45 8 21 26 76 40 123 33 110 40 120
55 81 7 -16 10 -35 5 -42 -4 -7 -3 -10 3 -6 9 6 26 -20 66 -95 6 -13 22 -37
35 -55 12 -17 22 -34 22 -38 0 -9 67 -92 116 -143 41 -42 41 -44 31 -85 -5
-23 -13 -46 -18 -51 -4 -5 -5 -15 -2 -24 4 -8 19 32 35 89 16 57 47 160 69
228 28 90 37 127 29 135 -8 8 -9 6 -4 -8 5 -13 4 -17 -3 -13 -7 5 -9 -1 -6
-15 4 -19 3 -21 -7 -8 -10 13 -11 12 -6 -3 9 -27 -25 -141 -37 -125 -6 9 -7 7
-3 -6 6 -17 1 -39 -20 -106 -5 -15 -17 -3 -93 90 -20 25 -39 47 -44 48 -4 2
-5 8 -1 13 3 5 1 9 -4 9 -9 0 -83 115 -86 135 -1 6 -18 40 -39 76 -20 36 -35
74 -33 85 8 39 39 124 47 130 5 3 9 17 9 32 0 22 2 24 11 12 9 -12 10 -12 5 3
-6 18 27 109 49 137 7 8 10 21 7 29 -3 9 0 11 8 6 9 -5 11 -4 6 4 -11 17 46
144 57 128 5 -7 6 -3 2 11 -3 12 -4 22 -1 22 2 0 16 -35 30 -77 47 -147 137
-319 203 -393 13 -14 23 -27 23 -30 0 -14 -37 -100 -41 -96 -3 3 -5 -3 -5 -12
-1 -9 -4 -30 -8 -47 -6 -27 -5 -27 8 5 39 91 81 206 80 218 -1 6 2 12 7 12 5
0 9 5 9 11 0 19 92 223 182 404 465 930 1097 1551 1823 1795 66 22 113 40 103
40 -9 0 -48 -11 -88 -24 -40 -14 -79 -22 -88 -19 -12 3 -13 2 -5 -4 9 -6 1
-12 -26 -19 l-40 -11 -30 92 c-33 99 -66 268 -57 291 3 8 2 14 -3 14 -4 0 -8
6 -8 14 0 12 37 25 74 27 5 1 13 5 19 10 24 20 373 109 428 109 9 0 15 -25 20
-81 7 -87 40 -293 52 -323 6 -15 4 -17 -6 -11 -8 5 -11 4 -7 -2 5 -9 -98 -32
-160 -36 -12 -1 -19 -5 -15 -9 4 -4 50 1 102 12 52 11 113 20 135 21 30 2 33
3 13 6 -16 2 -28 5 -28 6 0 1 -9 49 -20 107 -12 57 -23 153 -27 211 l-6 107
29 5 c25 3 25 4 -6 4 -19 0 -48 -2 -65 -4z m-545 -284 c11 -63 32 -157 48
-209 l29 -95 -46 -23 c-44 -22 -45 -22 -21 -2 22 19 22 20 3 11 -12 -6 -25
-15 -28 -21 -9 -15 -106 -61 -116 -54 -5 3 -8 0 -7 -8 2 -7 -5 -12 -14 -12
-10 1 -16 -2 -13 -6 6 -10 -24 -22 -35 -15 -5 3 -12 0 -16 -6 -5 -8 -2 -10 7
-5 8 4 6 1 -5 -6 -58 -40 -86 -57 -86 -51 0 4 -11 -4 -25 -17 l-24 -23 -11 27
c-5 15 -10 33 -10 40 0 6 -4 16 -8 22 -10 10 -37 97 -52 166 -14 67 -21 200
-9 193 5 -4 9 -2 9 3 0 11 83 63 105 66 6 1 24 10 39 19 15 10 32 15 38 11 7
-4 8 -3 4 5 -4 6 0 14 11 17 10 4 51 22 92 41 41 19 82 35 92 36 11 1 19 6 19
11 0 5 2 7 5 4 3 -3 14 -57 25 -119z m-465 -259 c26 -133 52 -227 75 -270 11
-20 8 -26 -20 -51 -17 -16 -36 -27 -41 -23 -5 3 -8 1 -7 -4 4 -13 -60 -64 -72
-57 -6 4 -9 3 -8 -2 2 -5 -35 -43 -82 -84 -46 -40 -80 -68 -75 -60 5 10 4 12
-3 7 -7 -4 -12 -12 -12 -17 0 -5 -24 -32 -52 -59 -29 -27 -57 -55 -63 -61 -5
-6 -27 -29 -47 -50 -21 -22 -38 -45 -38 -52 0 -18 -25 34 -45 92 -9 28 -14 61
-10 73 4 16 4 19 -3 9 -12 -17 -39 94 -55 228 l-11 94 73 68 c40 38 77 66 82
63 5 -3 8 -1 7 4 -2 5 17 26 42 46 25 20 58 48 75 61 32 27 41 30 50 15 3 -5
11 -10 18 -10 6 0 2 7 -9 16 -15 13 -16 15 -2 10 11 -3 15 -1 12 8 -2 6 16 27
41 45 25 18 45 29 45 25 0 -4 6 0 13 11 8 10 19 15 26 11 6 -4 10 -3 9 3 -3 9
52 52 59 47 1 -1 14 -62 28 -136z m-586 -420 c17 -116 48 -241 81 -327 21 -55
25 -75 16 -80 -7 -5 -32 -34 -55 -65 -24 -32 -48 -58 -53 -58 -5 0 -6 -6 -2
-12 4 -7 -3 -4 -17 7 -13 11 -19 13 -13 5 6 -8 10 -19 10 -25 -2 -20 -69 -104
-79 -98 -6 4 -7 1 -2 -6 4 -8 -3 -23 -18 -39 -13 -15 -32 -42 -41 -60 -10 -19
-21 -30 -28 -26 -6 4 -8 3 -5 -3 3 -5 -2 -22 -13 -38 l-18 -28 -21 46 c-12 25
-21 53 -21 61 0 9 -4 16 -9 16 -15 0 -62 191 -75 305 -11 96 -11 112 3 137 9
15 20 28 24 28 5 0 5 -4 2 -10 -11 -18 1 -11 21 12 15 19 16 20 2 9 -10 -7
-18 -10 -18 -6 0 10 62 80 71 80 4 0 11 4 16 9 5 5 3 6 -4 2 -26 -15 -12 12
25 47 20 20 48 50 61 67 14 19 29 29 38 26 8 -3 11 -1 8 4 -4 6 13 30 36 53
23 23 39 36 34 28 -6 -10 -4 -12 4 -7 7 5 10 14 7 21 -6 15 5 29 14 18 4 -5
12 -46 19 -93z m-390 -480 c28 -165 74 -308 124 -383 10 -15 9 -21 -8 -33 -11
-8 -19 -17 -17 -19 6 -12 1 -26 -8 -20 -6 3 -7 -1 -4 -9 3 -9 1 -16 -4 -16 -6
0 -14 -10 -18 -22 -3 -12 -20 -44 -37 -71 -22 -36 -32 -45 -39 -35 -6 9 -7 6
-3 -9 3 -13 2 -23 -3 -23 -5 0 -12 -14 -16 -31 -4 -20 -10 -28 -17 -23 -8 4
-9 3 -5 -4 10 -16 -22 -74 -36 -66 -7 4 -8 3 -4 -4 4 -6 1 -22 -6 -34 -7 -13
-12 -26 -13 -30 0 -3 -3 -9 -6 -13 -27 -26 -192 356 -175 402 4 10 4 14 -1 10
-4 -5 -13 16 -19 45 -12 51 -12 55 19 107 58 97 65 106 77 103 6 -1 8 2 5 8
-9 14 43 93 55 85 5 -3 7 0 4 8 -3 8 2 20 11 27 8 7 15 17 15 22 0 10 78 118
86 118 3 0 2 -5 -2 -12 -4 -7 -3 -8 5 -4 6 4 9 11 6 16 -5 8 5 44 10 38 2 -2
13 -59 24 -128z m-298 -571 c25 -80 59 -160 94 -222 56 -99 63 -117 45 -117
-6 0 -9 -3 -8 -7 5 -17 -45 -122 -55 -116 -5 3 -7 1 -4 -4 4 -6 -5 -38 -20
-72 -22 -52 -28 -59 -41 -48 -13 10 -14 9 -3 -10 9 -19 7 -31 -15 -75 -14 -29
-27 -61 -29 -72 -3 -10 -6 -21 -8 -23 -8 -8 -66 80 -60 91 3 6 2 8 -2 3 -11
-9 -96 144 -90 161 3 7 1 11 -4 8 -7 -4 -31 55 -32 81 0 5 -5 13 -11 20 -12
15 -47 129 -44 146 2 6 11 31 21 55 15 37 20 41 33 30 14 -11 14 -10 5 7 -9
16 -1 39 50 137 33 64 65 114 70 111 6 -3 7 -1 3 5 -4 7 5 33 21 59 l27 47 9
-34 c5 -19 26 -92 48 -161z"/>
<path d="M5170 11430 c-9 -6 -10 -10 -3 -10 6 0 15 5 18 10 8 12 4 12 -15 0z"/>
<path d="M5304 11298 c-4 -7 -3 -10 1 -5 5 4 18 -1 29 -10 21 -18 21 -18 2 5
-22 26 -23 26 -32 10z"/>
<path d="M5290 11266 c0 -2 8 -10 18 -17 15 -13 16 -12 3 4 -13 16 -21 21 -21
13z"/>
<path d="M5386 11228 c3 -5 10 -6 15 -3 13 9 11 12 -6 12 -8 0 -12 -4 -9 -9z"/>
<path d="M5410 11205 c0 -2 6 -8 13 -14 10 -8 14 -7 14 2 0 8 -6 14 -14 14 -7
0 -13 -1 -13 -2z"/>
<path d="M5370 11196 c0 -2 8 -10 18 -17 15 -13 16 -12 3 4 -13 16 -21 21 -21
13z"/>
<path d="M5159 10981 c8 -5 10 -14 6 -22 -6 -11 -5 -11 5 -2 14 12 6 33 -13
33 -8 0 -7 -3 2 -9z"/>
<path d="M4933 11275 c0 -8 4 -12 9 -9 5 3 6 10 3 15 -9 13 -12 11 -12 -6z"/>
<path d="M4536 10972 c-3 -5 1 -9 9 -9 8 0 12 4 9 9 -3 4 -7 8 -9 8 -2 0 -6
-4 -9 -8z"/>
<path d="M5054 10896 c11 -9 24 -16 30 -16 12 0 7 5 -24 19 -24 11 -24 11 -6
-3z"/>
<path d="M4875 10739 c-4 -6 -5 -12 -2 -15 2 -3 7 2 10 11 7 17 1 20 -8 4z"/>
<path d="M4295 10711 c-3 -5 -2 -12 3 -15 5 -3 9 1 9 9 0 17 -3 19 -12 6z"/>
<path d="M4336 10188 c3 -5 10 -6 15 -3 13 9 11 12 -6 12 -8 0 -12 -4 -9 -9z"/>
<path d="M4360 10170 c-9 -6 -10 -10 -3 -10 6 0 15 5 18 10 8 12 4 12 -15 0z"/>
<path d="M3955 10299 c-3 -4 2 -6 10 -5 21 3 28 13 10 13 -9 0 -18 -4 -20 -8z"/>
<path d="M3840 9405 c0 -5 5 -17 10 -25 5 -8 10 -10 10 -5 0 6 -5 17 -10 25
-5 8 -10 11 -10 5z"/>
<path d="M5758 11663 c7 -3 16 -2 19 1 4 3 -2 6 -13 5 -11 0 -14 -3 -6 -6z"/>
<path d="M7679 11413 c-13 -16 -12 -17 3 -5 14 11 21 9 50 -16 18 -16 39 -27
46 -25 7 3 12 1 11 -4 -3 -12 12 -43 21 -43 13 0 20 29 8 36 -7 5 -8 2 -3 -6
5 -8 3 -11 -6 -8 -8 3 -14 10 -14 17 0 7 -23 25 -51 42 -48 27 -52 28 -65 12z"/>
<path d="M7844 11331 c4 -6 16 -16 28 -22 15 -8 18 -8 14 0 -4 6 -16 16 -28
22 -15 8 -18 8 -14 0z"/>
<path d="M6248 11323 c23 -2 59 -2 80 0 20 2 1 4 -43 4 -44 0 -61 -2 -37 -4z"/>
<path d="M7855 11285 c12 -9 29 -14 43 -10 12 3 22 1 22 -5 0 -5 4 -9 9 -7 5
1 29 -16 52 -38 23 -22 45 -40 48 -40 3 -1 17 -6 31 -13 15 -8 7 3 -20 27 -25
22 -48 41 -52 41 -3 0 -20 12 -37 26 -21 17 -37 23 -50 19 -11 -3 -31 -1 -43
5 -22 11 -22 11 -3 -5z"/>
<path d="M5885 11270 c3 -5 14 -10 23 -10 15 0 15 2 2 10 -20 13 -33 13 -25 0z"/>
<path d="M7559 11113 c-13 -16 -17 -22 -10 -16 12 10 18 10 30 0 14 -10 14
-10 4 4 -10 12 -10 18 -1 27 7 7 10 12 7 12 -3 0 -16 -12 -30 -27z"/>
<path d="M7641 10987 c2 -1 13 -9 24 -17 19 -14 19 -14 6 3 -7 9 -18 17 -24
17 -6 0 -8 -1 -6 -3z"/>
<path d="M7890 10836 c0 -2 8 -10 18 -17 15 -13 16 -12 3 4 -13 16 -21 21 -21
13z"/>
<path d="M7870 10822 c0 -4 10 -13 23 -21 22 -14 22 -14 3 8 -20 22 -26 25
-26 13z"/>
<path d="M3481 9274 c0 -11 3 -14 6 -6 3 7 2 16 -1 19 -3 4 -6 -2 -5 -13z"/>
<path d="M3341 9054 c0 -11 3 -14 6 -6 3 7 2 16 -1 19 -3 4 -6 -2 -5 -13z"/>
<path d="M3296 9013 c-6 -14 -5 -15 5 -6 7 7 10 15 7 18 -3 3 -9 -2 -12 -12z"/>
<path d="M9164 8764 c12 -30 97 -308 107 -351 6 -23 15 -41 19 -38 5 3 -1 28
-12 57 -10 28 -17 60 -15 70 3 10 2 16 -1 14 -4 -2 -15 24 -26 57 -30 101 -68
207 -73 207 -3 0 -2 -7 1 -16z"/>
<path d="M3087 8423 c-43 -162 -77 -309 -112 -493 -53 -276 -109 -685 -91
-669 3 3 8 32 11 65 2 32 11 110 20 173 8 63 15 117 15 120 0 3 22 -37 49 -89
100 -198 169 -300 273 -403 44 -43 48 -52 48 -94 0 -85 7 -40 13 77 3 63 2 93
-2 65 l-6 -49 -54 54 c-84 87 -249 348 -234 373 3 6 1 7 -5 3 -7 -4 -12 -2
-12 3 0 6 -13 39 -29 73 l-29 63 16 90 c8 50 19 91 23 93 4 2 6 9 3 16 -4 10
14 105 58 309 6 26 15 47 20 47 6 0 7 -8 4 -17 -4 -10 -4 -14 0 -10 9 9 77
-121 69 -133 -3 -5 4 -14 15 -20 11 -6 20 -16 20 -22 0 -20 106 -171 164 -233
31 -33 54 -66 51 -72 -2 -7 -1 -13 3 -13 6 0 46 190 58 275 l4 30 -10 -30 c-6
-16 -13 -46 -16 -65 -7 -53 -27 -130 -34 -130 -15 0 -170 209 -170 229 0 6 -4
11 -8 11 -4 0 -16 14 -25 30 -10 17 -15 30 -11 30 4 0 0 8 -8 18 -25 29 -69
132 -62 144 4 7 3 8 -4 4 -8 -4 -16 3 -22 19 -8 21 -4 48 16 122 14 52 24 97
21 99 -2 2 -16 -40 -30 -93z"/>
<path d="M9735 8400 c5 -19 8 -44 7 -55 -1 -10 3 -24 7 -30 5 -5 18 -53 30
-105 13 -52 24 -100 26 -106 2 -7 -4 -20 -13 -30 -9 -11 -30 -39 -47 -63 -34
-50 -176 -199 -249 -261 -45 -38 -51 -40 -57 -24 -7 18 -8 18 -8 -1 0 -30 17
-103 18 -79 0 12 11 28 24 37 12 8 41 32 64 53 24 22 48 44 55 50 33 29 158
166 158 174 0 4 4 10 9 12 5 2 20 19 33 40 l25 36 24 -126 c13 -69 25 -119 27
-110 5 28 -120 604 -135 618 -3 3 -2 -11 2 -30z"/>
<path d="M9721 8374 c0 -11 3 -14 6 -6 3 7 2 16 -1 19 -3 4 -6 -2 -5 -13z"/>
<path d="M3494 8273 c4 -7 -4 -55 -18 -107 -14 -51 -26 -102 -25 -112 0 -11
14 32 30 95 23 88 27 117 18 125 -9 8 -10 8 -5 -1z"/>
<path d="M9371 8030 c0 -8 11 -62 24 -120 14 -58 22 -85 19 -60 -6 53 -42 202
-43 180z"/>
<path d="M9422 7775 c0 -16 2 -22 5 -12 2 9 2 23 0 30 -3 6 -5 -1 -5 -18z"/>
<path d="M9867 7783 c-3 -5 -1 -17 4 -28 7 -17 8 -17 8 8 1 27 -4 34 -12 20z"/>
<path d="M9888 7665 c4 -38 7 -86 7 -107 0 -20 3 -34 8 -31 4 2 7 -3 7 -13 0
-24 -208 -226 -313 -304 -70 -51 -87 -70 -87 -90 0 -14 4 -20 8 -15 4 6 27 24
52 40 25 17 50 35 56 40 6 6 24 21 40 34 16 13 40 33 53 45 13 11 21 16 17 9
-3 -6 -1 -15 5 -19 8 -4 9 -3 5 5 -5 7 16 34 51 69 32 32 73 75 91 95 l32 38
1 -28 c0 -15 9 -102 19 -193 12 -104 17 -132 14 -75 -9 147 -35 364 -64 520
-7 42 -8 39 -2 -20z"/>
<path d="M3365 7610 c-22 -145 -23 -152 -29 -230 -3 -36 8 23 24 130 16 107
28 200 26 205 -1 6 -11 -42 -21 -105z"/>
<path d="M9452 7595 c0 -16 4 -43 8 -60 l8 -30 0 35 c0 19 -4 46 -8 60 -8 24
-8 24 -8 -5z"/>
<path d="M9473 7465 c0 -22 2 -30 4 -17 2 12 2 30 0 40 -3 9 -5 -1 -4 -23z"/>
<path d="M9482 7400 c0 -14 6 -74 13 -135 l14 -110 -5 95 c-6 94 -21 200 -22
150z"/>
<path d="M3323 7270 c0 -25 2 -35 4 -22 2 12 2 32 0 45 -2 12 -4 2 -4 -23z"/>
<path d="M2873 7200 c0 -30 2 -43 4 -27 2 15 2 39 0 55 -2 15 -4 2 -4 -28z"/>
<path d="M2863 7085 c0 -33 2 -45 4 -27 2 18 2 45 0 60 -2 15 -4 0 -4 -33z"/>
<path d="M9511 7064 c0 -17 2 -33 5 -36 5 -6 8 -48 14 -258 2 -68 5 -84 9 -55
3 22 2 83 -2 135 -4 52 -6 118 -4 147 2 28 0 50 -4 47 -4 -2 -10 8 -12 23 -4
28 -4 28 -6 -3z"/>
<path d="M9560 7066 c0 -2 8 -10 18 -17 15 -13 16 -12 3 4 -13 16 -21 21 -21
13z"/>
<path d="M9960 6985 c0 -53 -5 -76 -22 -104 -28 -45 -77 -97 -89 -93 -16 4 -9
-7 26 -42 19 -20 35 -32 35 -27 0 5 -7 14 -15 21 -14 12 -12 17 18 49 19 20
39 45 45 56 9 17 11 10 12 -36 0 -31 3 -78 7 -104 5 -37 3 -46 -6 -41 -9 6 -9
3 0 -12 7 -12 15 -20 17 -18 4 5 -19 410 -24 415 -2 2 -4 -26 -4 -64z"/>
<path d="M9559 7013 c-13 -16 -12 -17 4 -4 16 13 21 21 13 21 -2 0 -10 -8 -17
-17z"/>
<path d="M2847 6881 c-8 -137 -10 -447 -2 -440 2 3 5 92 6 198 0 106 2 191 4
189 2 -2 15 -25 30 -53 27 -51 104 -169 140 -215 39 -51 177 -180 216 -201 38
-22 39 -24 39 -81 0 -32 -3 -58 -7 -58 -5 0 -35 4 -68 10 -33 5 -78 11 -100
14 -22 2 -39 9 -37 15 3 16 -3 14 -19 -6 -12 -14 -12 -16 0 -8 9 5 12 4 8 -2
-7 -12 90 -106 102 -98 5 3 33 0 63 -7 29 -6 57 -11 62 -10 4 2 60 -4 125 -13
64 -8 134 -16 155 -17 l40 -3 27 -120 c35 -159 86 -284 155 -385 19 -27 34
-54 34 -59 0 -5 3 -11 8 -13 4 -1 18 -16 30 -33 13 -16 44 -52 69 -78 25 -26
43 -50 40 -53 -8 -9 -127 8 -127 18 0 5 -4 6 -10 3 -11 -7 -257 26 -405 55
-55 10 -131 25 -169 32 -67 12 -72 15 -114 68 -25 30 -56 69 -71 85 -33 38
-51 66 -96 151 -40 74 -88 194 -78 194 3 0 1 6 -5 13 -11 12 -56 216 -50 223
2 1 21 -1 43 -6 22 -6 67 -13 100 -16 61 -6 100 -27 88 -48 -4 -7 -1 -6 8 1
11 9 19 9 26 2 6 -6 10 -5 10 5 0 8 -8 13 -18 11 -10 -2 -21 0 -24 6 -4 5 4 9
16 9 19 0 18 4 -17 41 -49 50 -66 60 -118 65 -107 11 -106 10 -106 63 0 26 -3
51 -7 55 -7 6 -163 -142 -163 -155 0 -4 6 -6 13 -6 6 0 35 -3 63 -7 l51 -8 8
-57 c4 -31 8 -68 9 -83 0 -14 4 -24 7 -22 4 2 10 -18 14 -44 8 -58 74 -216
123 -297 21 -33 42 -67 47 -76 17 -28 69 -93 89 -111 10 -10 15 -18 10 -18 -5
0 -2 -5 6 -11 17 -11 20 -12 -80 14 -30 8 -99 25 -152 37 -54 12 -96 26 -93
30 3 5 -3 6 -13 3 -10 -2 -46 5 -80 16 -34 12 -69 21 -77 21 -9 0 -13 4 -10
10 3 5 0 7 -8 4 -8 -3 -41 7 -73 22 -32 15 -63 27 -69 26 -22 -2 -200 94 -197
106 1 7 -3 12 -10 11 -22 -4 -47 12 -42 26 3 7 0 16 -7 21 -8 5 -10 3 -4 -7 5
-8 -3 -4 -16 8 -36 32 -54 109 -39 164 12 47 69 149 83 149 4 0 5 -5 1 -12 -4
-7 -3 -8 5 -4 6 4 9 11 6 16 -8 14 42 63 56 54 7 -4 9 -3 6 4 -4 5 16 27 44
48 l52 38 106 -27 c58 -14 118 -28 132 -31 22 -5 38 7 117 88 51 51 92 97 92
101 0 18 -293 -49 -385 -88 -184 -77 -322 -226 -332 -360 -9 -104 32 -169 146
-237 115 -68 419 -181 604 -224 84 -20 87 -22 74 -41 -13 -17 -17 -18 -33 -5
-17 14 -18 13 -6 -2 11 -14 10 -20 -6 -36 -11 -11 -23 -17 -27 -14 -4 4 -5 0
-3 -8 2 -9 -3 -14 -12 -12 -8 2 -11 0 -7 -4 4 -4 -22 -38 -59 -75 l-67 -68 29
-113 c27 -105 32 -116 73 -155 l45 -43 -24 -25 c-13 -14 -21 -27 -18 -30 2 -3
13 4 23 15 10 11 21 20 26 20 9 0 219 -209 219 -219 0 -4 -38 -44 -83 -88 -46
-44 -88 -86 -92 -94 -14 -23 20 8 104 94 41 42 78 77 82 77 11 0 220 -213 217
-222 -5 -13 -240 -248 -248 -248 -5 0 -19 12 -32 28 -13 15 -36 37 -50 50
l-25 23 28 -103 c16 -57 48 -178 71 -270 24 -92 47 -168 51 -168 5 0 49 40 98
90 49 49 91 90 93 90 1 0 53 -50 115 -111 l111 -111 -147 -146 c-142 -140
-231 -239 -127 -140 l50 48 112 -113 112 -112 -115 -115 c-63 -63 -113 -120
-111 -127 21 -54 17 -78 -25 -123 -137 -150 -162 -262 -88 -406 98 -194 329
-345 744 -487 147 -50 200 -64 191 -49 -3 5 -20 12 -38 16 -26 5 -30 9 -18 16
11 7 6 8 -15 4 -41 -7 -262 65 -248 81 5 4 2 5 -5 1 -7 -4 -20 -2 -28 5 -17
14 -84 112 -84 123 0 5 -8 20 -19 34 -23 33 -69 140 -73 173 -2 13 -9 33 -15
44 -15 28 -36 133 -28 145 3 5 1 10 -4 10 -6 0 -11 5 -11 10 0 7 7 7 20 0 11
-6 17 -16 14 -22 -4 -7 -3 -8 5 -4 6 4 23 -1 39 -12 15 -10 36 -22 47 -26 l20
-8 -20 -9 c-16 -7 -14 -8 8 -4 21 4 27 2 21 -6 -4 -8 -3 -9 4 -5 6 4 33 -4 59
-17 26 -13 71 -32 100 -42 29 -10 50 -21 48 -24 -1 -3 8 -7 21 -7 14 -1 31 -8
40 -15 8 -7 25 -14 37 -15 12 -1 54 -12 92 -24 39 -12 82 -24 98 -27 15 -3 27
-8 27 -12 0 -4 8 -7 18 -8 9 -1 28 -4 42 -7 14 -3 41 -9 60 -13 42 -10 80 -33
80 -50 0 -20 52 -166 67 -190 8 -12 11 -28 7 -34 -4 -8 -3 -9 4 -5 7 4 12 2
12 -4 0 -6 20 -43 45 -81 25 -38 45 -74 45 -78 0 -5 6 -12 13 -14 9 -4 8 -8
-3 -16 -8 -6 -10 -11 -4 -11 6 0 66 -9 133 -21 67 -11 127 -18 134 -16 7 2
-30 10 -80 17 -51 7 -90 17 -87 21 3 5 -1 6 -9 3 -9 -3 -24 7 -38 28 -13 18
-26 35 -30 38 -28 21 -149 258 -149 292 0 8 -4 18 -9 23 -11 12 -22 77 -13 71
6 -3 246 -46 422 -76 30 -5 111 -14 178 -21 79 -8 129 -17 138 -26 11 -12 14
-12 14 -1 1 21 18 -14 24 -48 3 -16 15 -49 27 -74 12 -25 22 -51 22 -57 0 -7
4 -13 9 -13 5 0 6 -4 3 -10 -3 -5 -1 -10 4 -10 6 0 11 -5 11 -10 0 -12 84
-142 115 -178 11 -13 19 -26 17 -30 -1 -3 -26 -5 -55 -3 -83 4 -51 -6 41 -13
67 -6 82 -4 76 6 -15 23 -13 42 4 63 17 20 17 20 -6 1 -12 -11 -21 -25 -18
-32 3 -7 -3 -18 -12 -26 -15 -11 -15 -11 -5 3 10 12 10 18 1 27 -7 7 -9 12 -6
12 4 0 -6 14 -22 31 -15 17 -41 54 -56 83 -15 28 -30 53 -34 56 -15 12 -61
123 -56 136 3 9 1 12 -4 9 -9 -5 -11 -1 -10 20 0 3 -7 19 -16 36 -16 31 -16
32 8 26 21 -6 306 -27 568 -42 58 -4 119 -7 135 -8 26 -2 32 -8 44 -47 40
-127 113 -272 183 -362 l29 -37 -28 -4 c-15 -2 155 -5 379 -6 378 -1 454 2
431 18 -26 17 -121 181 -106 181 5 0 3 4 -3 8 -5 4 -21 36 -33 72 -13 36 -27
74 -31 85 -5 11 -11 36 -15 56 -7 46 0 49 161 49 66 0 123 2 126 5 3 3 54 8
114 10 60 3 134 7 165 10 l56 4 18 -67 c9 -37 31 -96 47 -131 16 -35 26 -71
23 -79 -3 -9 -3 -13 1 -9 6 6 64 -75 64 -89 0 -3 9 -18 20 -34 11 -15 17 -30
13 -34 -8 -8 28 -8 97 1 43 5 50 8 30 13 -14 4 -34 2 -45 -3 -16 -8 -25 -3
-52 28 -18 21 -30 42 -27 46 3 5 1 9 -5 9 -15 0 -69 113 -112 234 -22 60 -39
113 -39 118 0 5 12 8 28 7 36 -1 298 27 437 48 61 9 124 17 140 18 17 1 41 5
55 8 14 3 41 8 61 12 l36 5 24 -72 c13 -40 24 -75 25 -78 4 -22 75 -171 85
-180 12 -11 54 -86 51 -92 -3 -11 8 -10 67 4 28 6 51 15 51 19 0 5 -12 4 -26
-2 -31 -11 -64 -3 -64 16 0 7 -4 15 -8 17 -9 3 -79 124 -100 173 -19 42 -62
175 -62 190 0 8 26 17 68 24 102 18 283 58 414 92 64 17 122 27 129 23 7 -4 9
-3 6 3 -4 6 4 13 18 15 13 3 24 2 23 -1 -1 -3 2 -15 6 -26 47 -124 62 -159 93
-215 20 -36 44 -79 54 -96 l19 -31 -61 -23 c-44 -16 -64 -19 -72 -11 -6 6 -15
11 -21 11 -5 0 -1 -7 10 -16 18 -14 18 -15 -6 -10 -14 3 -19 3 -11 0 18 -9
-59 -36 -79 -28 -12 4 -12 3 -3 -7 10 -10 31 -6 100 20 49 18 108 39 133 48
85 31 345 169 430 228 124 87 253 219 290 297 17 35 30 72 29 83 0 14 -2 15
-5 5 -21 -64 -37 -99 -43 -96 -4 3 -8 -5 -8 -16 -1 -11 -10 -29 -19 -39 -16
-17 -19 -18 -26 -4 -5 8 -6 20 -3 25 3 6 2 10 -3 10 -12 0 -47 89 -73 188
l-23 83 30 57 c33 64 40 72 63 66 9 -3 6 1 -7 8 -19 9 -25 9 -33 -3 -7 -12 -9
-12 -9 0 0 10 -5 9 -17 -5 -10 -10 -81 -81 -159 -157 l-141 -138 -112 112
-111 112 229 230 229 229 68 -71 c64 -66 69 -70 77 -50 4 13 4 25 0 29 -4 3
-35 35 -68 70 l-60 64 67 -62 c36 -34 69 -62 71 -62 5 0 38 127 41 160 1 9 5
20 8 26 4 6 16 43 26 82 17 62 17 71 4 60 -9 -7 -117 -115 -242 -240 l-226
-227 -115 115 -114 115 63 57 c34 31 62 61 62 67 0 5 -29 -20 -65 -55 l-65
-65 -113 113 -112 112 110 110 c60 60 112 110 116 110 7 0 219 -212 219 -220
0 -3 -18 -24 -40 -45 -22 -21 -40 -44 -40 -49 0 -6 27 18 61 53 l61 64 -119
121 -118 121 104 -100 c58 -55 113 -109 123 -119 18 -19 23 -16 234 198 l216
218 31 -29 c18 -15 42 -39 54 -53 l21 -25 7 30 c13 57 55 220 74 287 l18 68
-95 94 c-52 53 -100 93 -106 89 -6 -3 42 48 106 113 l118 118 33 -32 34 -33
21 73 c12 40 24 87 28 103 3 17 18 68 32 113 l25 84 -84 84 -84 84 143 143
142 143 30 113 c17 63 30 115 30 116 0 1 21 10 48 20 78 30 251 127 299 170
57 49 83 103 83 175 0 68 -25 123 -76 172 -39 37 -161 99 -244 124 -183 54
-354 88 -378 75 -9 -6 -80 -73 -156 -150 l-139 -140 44 10 c24 6 52 8 61 5 10
-2 16 -1 13 4 -2 4 23 11 58 14 34 4 91 14 127 22 36 8 86 16 112 17 25 1 44
5 41 10 -2 4 3 7 12 7 9 0 14 -4 10 -9 -3 -5 -2 -12 3 -15 5 -3 9 3 9 12 0 9
-43 62 -96 117 -86 90 -84 88 27 -20 97 -95 122 -115 122 -97 0 12 3 22 8 23
13 1 36 7 116 28 102 27 117 26 174 -5 52 -28 79 -51 49 -41 -11 4 -16 3 -12
-4 4 -5 12 -8 18 -6 19 6 64 -60 76 -111 13 -53 -5 -149 -27 -144 -7 1 -11 -4
-10 -10 2 -7 -3 -12 -10 -10 -8 1 -11 -2 -7 -9 7 -10 -33 -46 -47 -42 -4 2 -5
-4 -1 -13 5 -13 2 -15 -17 -9 -14 4 -20 3 -16 -3 3 -5 -8 -15 -24 -22 -16 -7
-35 -18 -41 -26 -6 -8 -17 -14 -23 -14 -23 1 -162 249 -170 305 -5 32 -17 58
-39 82 -22 25 -41 21 -28 -5 5 -9 26 -61 46 -116 20 -54 47 -115 61 -135 13
-19 24 -39 24 -44 0 -5 14 -28 30 -52 45 -65 41 -73 -25 -50 -16 5 -15 3 3 -7
l23 -14 -23 -11 c-13 -6 -49 -22 -81 -37 -32 -15 -63 -24 -69 -20 -7 5 -8 3
-3 -6 6 -10 3 -12 -13 -8 -13 4 -20 2 -16 -4 3 -5 0 -8 -7 -7 -8 1 -35 -7 -61
-19 -26 -12 -67 -26 -90 -32 -24 -6 -53 -16 -65 -22 -17 -8 -26 -8 -38 2 -8 7
-18 10 -22 6 -3 -3 -1 -6 5 -6 29 0 8 -19 -35 -31 -27 -7 -54 -15 -60 -17 -7
-2 -13 2 -13 10 0 7 -12 27 -26 43 -58 67 -154 308 -158 398 0 21 -31 18 -31
-3 0 -8 -4 -21 -9 -29 -6 -10 -5 -12 2 -7 8 5 12 0 12 -12 0 -11 10 -51 22
-88 12 -38 22 -73 23 -79 0 -5 6 -16 13 -23 6 -7 12 -22 12 -32 0 -10 5 -22
10 -25 6 -4 24 -34 41 -67 17 -34 38 -68 45 -76 8 -8 13 -17 10 -19 -8 -9
-320 -80 -475 -109 l-153 -28 -30 34 c-16 19 -32 40 -36 45 -15 21 -57 119
-55 127 2 4 -2 8 -7 8 -5 0 -9 3 -8 8 1 4 -8 29 -20 55 -36 81 -71 233 -76
332 -1 33 -10 30 176 49 114 11 238 26 338 41 148 21 137 24 145 -40 8 -59 15
-62 39 -15 10 21 11 32 4 36 -7 5 -8 2 -3 -6 5 -9 4 -11 -3 -6 -7 4 -12 18
-12 32 0 19 5 24 28 26 15 0 40 2 55 3 23 2 62 35 180 153 100 101 146 153
137 156 -8 3 -48 10 -87 16 l-73 12 -2 76 c-1 43 -3 60 -5 40 -5 -44 -1 -44
-177 -25 -123 13 -121 5 -25 87 29 25 56 44 60 43 3 -1 6 5 5 15 -1 11 6 16
17 16 17 -2 17 -1 1 17 -9 10 -18 19 -20 19 -1 0 -29 -25 -61 -56 -93 -90
-142 -125 -172 -120 -14 2 -34 5 -43 5 -11 1 -18 12 -21 34 -2 18 -4 6 -5 -29
-1 -33 -4 -63 -7 -65 -2 -3 -55 0 -117 7 -62 7 -219 19 -348 28 -129 9 -298
21 -375 26 -383 26 -1046 48 -1765 56 -545 7 -555 7 -540 -12 14 -19 14 -19
-7 0 -22 18 -41 18 -592 7 -984 -19 -1757 -60 -2301 -121 -96 -11 -181 -20
-188 -20 -12 0 -13 30 -11 170 2 93 1 159 -3 145 -3 -13 -8 -116 -9 -229 -3
-134 -7 -202 -14 -198 -65 39 -205 172 -205 195 0 4 -7 7 -16 7 -8 0 -13 4
-10 9 3 5 -1 14 -9 21 -8 7 -12 17 -8 23 3 6 1 7 -5 3 -7 -4 -12 -2 -12 3 0
19 -3 26 -27 51 -13 14 -23 28 -23 32 0 4 -15 31 -33 60 -45 71 -50 83 -56
153 -6 54 -7 47 -14 -64z m3725 -324 l-52 -53 20 -22 20 -22 -22 20 c-22 20
-22 20 -48 -2 l-25 -22 22 24 23 24 -48 51 -47 50 50 -48 51 -47 49 50 c27 27
52 50 54 50 3 0 -18 -24 -47 -53z m-112 -110 c0 -2 -17 -19 -37 -38 l-38 -34
34 38 c33 34 41 42 41 34z m156 -39 l29 -33 -32 29 c-31 28 -38 36 -30 36 2 0
16 -15 33 -32z m-236 -41 c0 -2 -17 -19 -37 -38 l-38 -34 34 38 c33 34 41 42
41 34z m316 -39 l29 -33 -32 29 c-31 28 -38 36 -30 36 2 0 16 -15 33 -32z
m-396 -41 c0 -2 -17 -19 -37 -38 l-38 -34 34 38 c33 34 41 42 41 34z m476 -39
l29 -33 -32 29 c-31 28 -38 36 -30 36 2 0 16 -15 33 -32z m-556 -41 c0 -2 -17
-19 -37 -38 l-38 -34 34 38 c33 34 41 42 41 34z m636 -39 l29 -33 -32 29 c-31
28 -38 36 -30 36 2 0 16 -15 33 -32z m-716 -41 c0 -2 -17 -19 -37 -38 l-38
-34 34 38 c33 34 41 42 41 34z m796 -39 l29 -33 -32 29 c-31 28 -38 36 -30 36
2 0 16 -15 33 -32z m-3166 -13 c30 -4 61 -12 69 -18 12 -10 13 -9 6 2 -6 11
-3 13 16 8 13 -3 96 -11 184 -17 88 -6 167 -14 175 -16 8 -3 48 -6 90 -8 42
-1 81 -5 87 -9 5 -4 13 -31 17 -60 23 -197 153 -466 306 -630 l54 -59 -89 7
c-50 3 -169 15 -265 25 -96 10 -211 22 -255 26 -114 10 -128 16 -190 81 -99
103 -237 311 -247 371 -2 9 -6 19 -9 22 -20 16 -84 272 -71 285 3 3 19 3 36 1
17 -3 56 -8 86 -11z m2290 -28 c0 -2 -17 -19 -37 -38 l-38 -34 34 38 c33 34
41 42 41 34z m956 -39 l29 -33 -32 29 c-31 28 -38 36 -30 36 2 0 16 -15 33
-32z m2018 -30 c15 -150 85 -372 148 -466 15 -24 28 -45 28 -48 0 -3 9 -17 20
-32 11 -14 17 -29 13 -33 -4 -4 -33 -9 -63 -11 -30 -2 -57 -6 -60 -9 -5 -6
-360 -54 -475 -65 -33 -3 -64 -1 -70 3 -19 16 -70 77 -53 65 12 -10 18 -10 24
-1 4 7 3 9 -3 6 -17 -11 -68 45 -109 118 -6 11 -23 42 -38 68 -15 27 -25 55
-22 63 3 7 1 13 -5 11 -14 -3 -44 76 -74 195 -40 156 -49 144 113 151 131 7
275 18 447 36 44 5 101 9 126 10 l46 1 7 -62z m-4214 17 c173 -9 329 -19 346
-21 30 -4 31 -6 38 -67 3 -35 18 -104 31 -153 28 -98 31 -105 68 -182 15 -29
23 -60 20 -69 -4 -11 -3 -14 5 -9 7 4 12 1 12 -7 0 -8 9 -22 20 -32 11 -10 17
-22 13 -28 -3 -6 -1 -7 5 -3 16 10 15 -6 0 -24 -11 -12 -10 -12 4 -2 18 14 34
0 22 -20 -4 -7 -3 -8 4 -4 7 4 12 3 12 -1 0 -5 24 -39 54 -75 30 -36 53 -68
50 -71 -2 -2 -19 -3 -37 -1 -17 1 -171 10 -342 20 -238 14 -314 22 -327 33 -9
8 -15 18 -12 23 3 4 -2 8 -10 8 -13 0 -85 82 -158 181 -65 88 -154 284 -172
379 -3 14 -10 41 -15 60 -6 19 -11 48 -11 64 0 26 2 28 33 23 17 -3 174 -13
347 -22z m3428 -92 c30 -191 121 -389 256 -558 16 -19 27 -38 24 -40 -8 -8
-277 -33 -540 -51 -218 -15 -242 -15 -250 -1 -5 9 -15 23 -23 31 -8 8 -15 19
-15 25 0 6 -3 11 -7 11 -20 0 -118 184 -107 202 4 7 3 8 -4 4 -9 -5 -30 17
-30 34 -1 15 -16 66 -22 75 -14 19 -60 253 -60 303 0 11 -12 10 270 22 135 5
265 11 290 13 25 2 81 4 126 5 l80 2 12 -77z m-2473 51 c110 -3 202 -7 204
-10 3 -2 6 -14 8 -25 2 -13 -1 -18 -9 -13 -7 5 -8 3 -2 -7 11 -17 12 -21 24
-89 8 -44 48 -196 64 -245 8 -26 37 -92 46 -105 6 -8 15 -26 20 -39 12 -26 52
-88 108 -165 l36 -49 -338 6 c-305 6 -341 8 -359 24 -17 15 -40 43 -128 151
-5 7 -7 17 -4 22 4 6 -1 7 -11 3 -14 -5 -16 -2 -12 19 3 18 1 25 -8 21 -12 -4
-79 116 -110 199 -23 63 -63 216 -70 272 l-7 49 174 -7 c96 -4 264 -9 374 -12z
m745 -14 l257 0 6 -82 c3 -46 15 -127 26 -181 12 -55 18 -104 14 -110 -4 -6
-1 -7 7 -2 10 6 12 3 8 -11 -3 -11 1 -25 9 -32 7 -7 13 -24 13 -37 0 -14 5
-25 10 -25 6 0 10 -5 10 -11 0 -11 61 -140 71 -149 11 -10 51 -81 48 -85 -3
-2 -155 -5 -339 -6 l-335 -2 -58 74 c-32 41 -66 90 -75 109 -9 19 -20 37 -23
40 -24 19 -101 223 -122 320 -9 41 -19 104 -23 139 l-7 64 123 -6 c68 -4 239
-7 380 -7z m920 -27 c0 -21 9 -80 20 -131 10 -52 16 -101 13 -109 -4 -11 -2
-14 5 -9 7 4 12 1 12 -8 0 -9 14 -49 30 -91 33 -82 36 -100 18 -89 -7 4 -8 3
-4 -5 4 -6 11 -9 16 -6 10 6 35 -23 27 -31 -3 -4 -2 -11 4 -18 19 -23 119
-179 116 -182 -3 -4 -449 -19 -561 -19 -78 0 -90 2 -100 20 -6 10 -16 25 -23
32 -27 29 -74 124 -67 134 4 7 3 9 -4 6 -11 -8 -49 83 -83 199 -20 71 -48 244
-49 302 l0 33 126 -2 c69 -1 128 2 131 5 4 3 89 6 190 6 l183 0 0 -37z m2758
-376 c23 -24 39 -47 35 -51 -5 -4 -3 -6 3 -4 6 2 27 -11 47 -29 l36 -31 -115
-119 -115 -118 -104 107 c-58 60 -105 112 -105 118 0 5 17 28 39 50 27 28 44
38 60 35 19 -4 21 -2 10 11 -6 8 -10 16 -8 19 6 5 151 54 164 54 6 1 30 -18
53 -42z m-263 -27 c-4 -6 -11 -8 -16 -5 -5 3 -6 -1 -3 -9 3 -9 -2 -17 -15 -21
-12 -3 -21 -13 -21 -20 0 -15 -61 -68 -71 -63 -11 5 -39 -24 -33 -34 4 -6 -81
-97 -187 -204 l-194 -194 -111 112 -112 112 109 107 110 107 92 17 c51 9 106
21 124 26 17 5 44 12 60 14 31 4 122 26 198 49 61 18 78 19 70 6z m-6836 -45
c36 -7 109 -21 162 -31 l97 -17 -48 -46 c-26 -25 -66 -68 -89 -94 -23 -27 -55
-60 -71 -73 l-29 -25 -93 91 c-87 86 -92 92 -79 113 13 20 13 21 -3 8 -13 -11
-19 -12 -29 -2 -9 10 -1 22 38 57 28 25 56 42 64 39 7 -3 43 -12 80 -20z m406
-80 c34 -14 145 -120 145 -137 0 -7 -66 -78 -147 -159 l-146 -148 -103 106
c-56 58 -107 103 -112 99 -5 -3 -9 2 -8 12 1 20 173 185 185 177 5 -2 8 3 7
12 0 9 5 18 12 20 8 3 10 -2 6 -14 -5 -14 -4 -15 4 -3 6 8 8 18 5 24 -3 5 3
15 13 23 21 16 87 10 139 -12z m5840 -6 c-4 -5 -13 -9 -21 -9 -9 0 -12 -5 -8
-12 5 -7 2 -9 -9 -5 -10 4 -14 2 -11 -7 3 -7 -4 -20 -15 -31 -18 -15 -23 -16
-38 -4 -16 13 -17 12 -4 -4 20 -25 -1 -46 -26 -26 -17 13 -17 13 -4 -4 13 -16
11 -21 -18 -50 -20 -19 -35 -27 -38 -21 -2 7 -29 37 -59 67 -30 30 -51 58 -46
61 15 9 155 36 192 37 19 0 43 4 53 8 28 11 58 11 52 0z m-6435 -25 c0 -8 -19
-13 -24 -6 -3 5 1 9 9 9 8 0 15 -2 15 -3z m1026 -24 c65 -6 126 -14 134 -17 8
-3 34 -5 58 -4 23 2 42 -1 42 -5 0 -8 -26 -35 -351 -361 l-230 -232 -92 92
c-51 51 -101 102 -111 114 l-19 23 145 142 c212 211 278 270 292 265 7 -3 67
-10 132 -17z m399 -45 c66 -8 144 -15 173 -15 28 0 52 -4 52 -10 0 -5 8 -7 18
-3 14 5 15 4 4 -8 -7 -8 -18 -14 -25 -14 -7 -1 -11 -7 -9 -14 3 -13 -34 -46
-52 -46 -5 0 -10 -8 -12 -19 -1 -10 -18 -34 -36 -54 -26 -27 -28 -32 -10 -23
12 7 28 21 35 31 6 11 16 20 20 20 5 0 37 29 72 65 36 36 68 65 72 65 5 0 41
-34 82 -75 40 -41 75 -75 76 -75 2 0 18 -13 36 -29 l32 -30 28 22 c16 12 59
51 96 85 l68 64 195 -7 c107 -4 199 -11 205 -16 5 -6 2 -9 -9 -9 -9 0 -15 -4
-12 -8 3 -5 -16 -29 -43 -53 -26 -24 -48 -48 -48 -53 0 -5 -115 -123 -254
-262 l-253 -253 -26 22 -25 22 25 -28 24 -28 133 133 132 132 112 -113 c61
-61 110 -114 108 -116 -2 -2 -184 -184 -403 -405 l-400 -400 -113 112 -112
113 257 260 c141 143 244 248 227 233 -40 -35 -74 -43 -134 -28 -138 33 -188
202 -89 307 19 21 22 21 47 6 14 -9 -30 40 -98 109 -115 118 -123 128 -108
143 24 23 21 32 -3 10 -15 -14 -23 -15 -33 -6 -8 6 -17 9 -20 6 -4 -3 -5 -2
-2 2 3 4 -18 30 -46 59 -29 29 -53 62 -54 73 -2 26 -23 51 -39 45 -7 -3 -19 2
-26 11 -11 13 -9 19 10 40 13 14 26 25 29 25 3 0 60 -7 126 -15z m-1334 -22
c13 -16 12 -17 -3 -4 -17 13 -22 21 -14 21 2 0 10 -8 17 -17z m5647 -40 c49
-47 53 -55 41 -70 -13 -17 -13 -17 7 0 20 17 22 16 56 -24 l36 -41 30 31 c33
35 44 38 63 15 11 -14 9 -20 -15 -41 -16 -13 -35 -22 -43 -19 -20 8 16 -40 62
-83 l37 -34 -116 -116 -115 -115 -28 24 -28 25 24 -27 c21 -25 22 -28 7 -34
-9 -4 -19 -5 -21 -3 -3 2 -50 49 -105 103 -77 77 -97 102 -89 113 6 7 15 10
20 7 23 -14 3 11 -57 70 -37 36 -71 63 -77 59 -5 -3 -7 -2 -4 4 3 5 -7 25 -23
44 -34 40 -35 46 -13 73 13 15 10 14 -10 -3 -45 -41 -30 -7 17 37 36 33 53 41
97 46 30 3 68 7 84 9 90 11 106 6 163 -50z m-376 -4 c-35 -33 -50 -30 -73 13
-9 16 -5 18 48 18 l58 0 -33 -31z m521 -6 c-4 -10 -14 -23 -22 -30 -13 -10
-14 -15 -3 -33 11 -19 11 -20 -7 -8 -32 19 -36 73 -5 61 10 -4 12 0 8 11 -4
12 0 16 15 16 15 0 19 -4 14 -17z m-4572 -10 c13 -16 12 -17 -3 -4 -10 7 -18
15 -18 17 0 8 8 3 21 -13z m3569 2 c-7 -8 -17 -12 -24 -8 -6 3 -8 3 -4 -2 4
-4 3 -14 -3 -21 -12 -15 -3 -37 12 -28 13 7 49 -24 49 -43 0 -7 4 -12 10 -10
9 2 160 -141 160 -153 0 -10 -447 -453 -456 -451 -5 1 -58 50 -117 109 l-109
107 222 218 c122 121 219 222 215 225 -3 3 -52 -43 -109 -104 l-104 -109 -61
65 c-33 36 -82 87 -108 113 -43 45 -45 49 -29 65 14 14 52 19 224 28 114 6
215 11 226 12 15 2 16 -1 6 -13z m-1973 -23 c13 -7 28 -22 34 -34 10 -19 8
-25 -18 -47 -17 -14 -59 -58 -95 -97 -36 -38 -90 -94 -121 -123 l-55 -52 -111
113 -111 113 80 75 79 75 148 -6 c86 -3 157 -10 170 -17z m1494 5 c-7 -7 -14
-8 -21 -1 -6 6 -2 10 12 11 16 2 18 -1 9 -10z m1844 -7 c10 -11 16 -20 13 -20
-3 0 -13 9 -23 20 -10 11 -16 20 -13 20 3 0 13 -9 23 -20z m-2798 -5 c-2 -5
-10 -10 -17 -10 -7 0 -15 5 -17 10 -2 6 6 11 17 11 11 0 19 -5 17 -11z m456
-1 c9 -9 -94 -115 -105 -108 -4 3 -8 -2 -8 -10 0 -11 -664 -686 -676 -686 -1
0 -52 50 -114 112 l-111 112 272 268 c166 163 278 267 287 263 7 -3 10 0 7 6
-4 6 1 19 11 30 16 18 32 19 224 19 114 0 210 -3 213 -6z m2922 -114 l109
-109 -24 -27 c-14 -15 -143 -145 -287 -288 l-263 -262 -110 111 -111 112 283
286 c156 157 285 287 288 287 3 0 55 -49 115 -110z m-2784 -23 l106 -104 -57
-59 c-32 -32 -81 -81 -109 -109 l-51 -49 -111 109 -110 110 108 103 c59 56
110 102 113 102 3 0 53 -47 111 -103z m-1027 31 c-3 -5 -1 -7 4 -6 5 2 47 -32
92 -75 l82 -78 -155 -156 -154 -155 -107 108 c-58 60 -106 112 -106 115 0 15
243 248 253 242 5 -3 7 -1 3 5 -3 5 6 19 21 30 26 19 26 19 49 -1 13 -11 21
-24 18 -29z m-1044 7 c-12 -15 -30 -12 -30 6 0 5 10 9 21 9 18 0 19 -2 9 -15z
m-858 -182 l108 -108 -377 -377 c-208 -208 -374 -378 -369 -378 5 0 51 43 103
96 52 52 99 94 104 92 5 -2 56 -50 114 -108 l106 -104 -128 -128 c-70 -70
-125 -128 -121 -128 4 0 64 56 133 124 l126 124 107 -109 c59 -60 108 -113
110 -117 1 -4 -54 -63 -123 -132 l-125 -125 -58 58 c-53 53 -83 73 -66 45 4
-6 3 -8 -3 -5 -13 8 -36 -17 -25 -27 4 -4 2 -6 -4 -4 -14 4 -95 -73 -88 -84 3
-4 10 -5 16 -2 7 5 8 2 3 -5 -5 -9 -10 -10 -18 -2 -7 7 -17 3 -33 -12 -18 -17
-20 -25 -11 -37 10 -13 10 -13 -4 -2 -13 10 -19 9 -29 -3 -12 -14 -7 -19 13
-16 5 1 5 -4 2 -10 -5 -7 -10 -8 -18 0 -7 7 -15 7 -26 -2 -19 -14 46 57 122
135 30 31 52 60 49 64 -4 4 -1 4 6 0 6 -4 12 -3 12 1 0 5 -6 15 -12 23 -11 12
-10 12 5 0 14 -10 21 -10 30 -1 9 9 -29 52 -163 186 -95 95 -178 171 -183 168
-6 -3 -7 -1 -4 4 4 6 -40 57 -98 114 l-105 103 398 398 c218 219 401 398 407
398 5 0 58 -48 117 -107z m3469 50 c13 -16 12 -17 -3 -4 -10 7 -18 15 -18 17
0 8 8 3 21 -13z m-3028 -24 c8 -12 -11 -37 -87 -112 -89 -90 -101 -107 -97
-131 1 -5 -6 -5 -16 -2 -15 6 -15 4 2 -16 11 -13 36 -41 57 -64 l39 -40 -22
-20 c-11 -10 -25 -28 -31 -39 -6 -12 3 -7 22 13 17 17 34 32 38 32 4 0 57 -50
117 -110 l110 -110 -150 -150 c-82 -83 -154 -150 -159 -150 -5 0 -59 49 -119
109 l-109 109 96 96 c53 53 96 99 96 103 0 4 -45 -37 -100 -92 l-100 -100
-111 112 -111 112 157 155 156 155 41 -45 41 -45 13 31 c14 33 194 220 208
216 5 -1 14 -9 19 -17z m4586 -88 l108 -109 -348 -348 -349 -349 -110 110
c-61 60 -109 114 -107 118 4 14 680 687 689 687 4 0 57 -49 117 -109z m924
-223 c-82 -83 -110 -105 -122 -98 -9 5 -61 54 -115 110 l-100 101 109 109 110
110 112 -112 113 -113 -107 -107z m-1853 208 c60 -60 110 -112 110 -116 0 -4
-7 -10 -15 -14 -8 -3 -15 -11 -15 -17 0 -7 8 -5 20 6 20 18 22 17 118 -76 53
-52 100 -99 104 -105 4 -6 -42 -59 -104 -122 l-112 -112 -94 95 c-53 53 -100
92 -106 88 -6 -3 -7 -2 -3 2 4 5 -47 64 -115 132 -67 67 -120 125 -118 128 17
19 215 222 217 221 1 -1 52 -50 113 -110z m-937 -6 l111 -111 -109 -109 -110
-110 -113 113 -113 113 108 107 c59 59 110 107 112 107 2 0 54 -50 114 -110z
m2127 95 c-7 -9 -15 -13 -19 -10 -3 3 1 10 9 15 21 14 24 12 10 -5z m-5923
-40 c0 -8 -4 -12 -9 -9 -5 3 -6 10 -3 15 9 13 12 11 12 -6z m1830 -48 c50 -54
71 -108 53 -138 -7 -11 -13 -9 -29 10 -11 13 -18 27 -15 32 2 5 -18 32 -46 61
-55 57 -56 58 -38 76 18 18 20 16 75 -41z m3250 11 c11 -13 24 -33 28 -45 3
-13 13 -23 21 -23 8 0 28 -14 46 -30 50 -48 43 -82 -31 -152 -34 -32 -65 -58
-70 -58 -5 0 -13 10 -17 22 -5 17 1 29 29 55 55 49 63 71 39 96 -20 20 -21 20
-49 2 -15 -10 -35 -27 -44 -38 -19 -24 -49 -17 -49 11 0 10 14 31 30 47 33 32
37 68 8 73 -9 2 -38 -17 -64 -42 -33 -32 -53 -44 -66 -40 -30 9 -21 28 41 87
68 65 111 75 148 35z m628 -8 c10 -11 16 -20 13 -20 -3 0 -13 9 -23 20 -10 11
-16 20 -13 20 3 0 13 -9 23 -20z m135 5 c-7 -9 -15 -13 -19 -10 -3 3 1 10 9
15 21 14 24 12 10 -5z m-2658 -378 c-15 -16 -96 -97 -181 -180 -85 -84 -200
-198 -257 -254 -56 -57 -106 -103 -110 -103 -5 0 -57 48 -116 107 l-108 108
287 287 288 288 112 -112 113 -112 -28 -29z m843 134 l106 -105 -110 -110
-111 -111 -110 110 -110 110 107 107 c59 60 111 107 115 106 4 -2 55 -50 113
-107z m1741 -102 l110 -110 -47 -50 c-27 -27 -54 -49 -60 -49 -6 0 -29 18 -51
40 -22 22 -44 37 -49 34 -5 -3 -8 -2 -7 3 5 14 -41 65 -52 58 -6 -4 -10 -3 -9
2 4 20 -2 24 -18 12 -15 -11 -16 -11 -6 1 10 10 8 19 -9 42 l-21 30 49 49 c26
27 51 49 53 49 3 0 56 -50 117 -111z m-3383 -323 c7 4 9 4 5 -1 -4 -4 -3 -13
2 -20 7 -8 -26 -47 -113 -133 l-122 -122 -113 113 -113 112 98 96 c54 53 109
109 123 125 14 16 -27 -21 -90 -81 -63 -60 -119 -116 -125 -123 -8 -9 -38 16
-124 102 l-114 114 124 120 123 121 214 -215 c129 -130 218 -212 225 -208z
m862 354 c4 -6 -1 -7 -12 -3 -16 6 -17 5 -3 -13 14 -18 14 -18 -2 -5 -10 7
-15 17 -12 22 7 12 21 11 29 -1z m2876 -142 l110 -112 -115 -115 -116 -116
-41 43 c-23 23 -46 39 -52 35 -5 -3 -7 -1 -4 4 4 6 -23 41 -59 78 l-66 68 113
113 c63 63 115 114 117 114 1 0 52 -50 113 -112z m-1761 -122 c0 -5 -109 -116
-242 -247 l-243 -238 -107 107 c-60 58 -108 110 -108 114 0 3 109 116 241 249
l241 241 109 -108 c60 -60 109 -113 109 -118z m-1027 106 l107 -107 -170 -170
-170 -170 -110 110 -110 110 167 168 c91 92 169 167 172 167 4 0 55 -48 114
-108z m1279 -11 c17 -2 128 -128 128 -145 0 -11 -32 -51 -77 -93 l-77 -74 124
-124 124 -124 -127 -128 -127 -128 -134 134 c-89 89 -138 131 -146 126 -9 -5
-11 -4 -6 4 5 7 -25 45 -78 100 -47 48 -86 92 -86 97 0 5 80 89 178 187 l178
176 60 -3 c32 -3 62 -5 66 -5z m-4038 -39 c3 -5 -1 -9 -9 -9 -8 0 -12 4 -9 9
3 4 7 8 9 8 2 0 6 -4 9 -8z m2897 -49 c13 -16 12 -17 -3 -4 -10 7 -18 15 -18
17 0 8 8 3 21 -13z m1947 -125 l111 -112 -227 -223 c-124 -123 -229 -223 -232
-223 -8 0 -220 210 -220 218 0 9 443 452 451 452 4 0 56 -50 117 -112z m940 2
l108 -110 -108 -107 c-59 -60 -112 -109 -118 -111 -11 -4 -220 199 -220 214 0
11 212 224 222 224 4 0 56 -49 116 -110z m-2795 -8 l108 -108 -165 -164 c-91
-91 -169 -166 -173 -167 -5 -2 -57 46 -118 107 l-109 109 164 166 c91 91 169
165 175 165 6 0 59 -49 118 -108z m2277 32 c0 -8 -19 -13 -24 -6 -3 5 1 9 9 9
8 0 15 -2 15 -3z m-3321 -150 l105 -105 -122 -122 -122 -122 -107 108 -108
107 120 120 c66 66 122 120 125 120 3 0 52 -48 109 -106z m-989 -289 c-85 -85
-161 -155 -168 -155 -16 0 -223 201 -219 213 1 4 72 79 157 166 l155 158 115
-114 115 -113 -155 -155z m385 376 c3 -5 2 -12 -3 -15 -5 -3 -9 1 -9 9 0 17 3
19 12 6z m925 -14 c0 -2 -10 -12 -22 -23 l-23 -19 19 23 c18 21 26 27 26 19z
m2809 -179 l110 -113 -112 -113 -112 -112 -112 112 -113 113 112 112 c62 62
113 113 114 113 1 0 52 -51 113 -112z m-4772 87 c0 -8 -4 -12 -9 -9 -5 3 -6
10 -3 15 9 13 12 11 12 -6z m2888 -125 l109 -110 -154 -154 -155 -155 -113
112 -112 112 152 152 c84 84 155 153 158 153 3 0 55 -49 115 -110z m2316 53
c13 -16 12 -17 -3 -4 -10 7 -18 15 -18 17 0 8 8 3 21 -13z m-3231 -248 c0 -5
-66 -76 -147 -157 l-147 -148 80 -79 c70 -70 82 -77 92 -63 10 15 11 15 5 -2
-5 -15 -3 -18 10 -13 9 3 19 2 22 -4 4 -5 3 -9 -2 -8 -30 5 -31 -5 -2 -33 18
-18 43 -33 55 -33 13 -1 27 -4 31 -9 4 -4 3 -7 -2 -6 -31 7 -32 -4 -3 -34 28
-29 34 -32 44 -19 9 13 11 12 9 -8 -1 -14 10 -36 29 -55 26 -28 32 -30 42 -17
9 13 11 12 9 -8 -1 -14 10 -36 29 -55 27 -29 31 -30 43 -16 12 15 12 15 6 -2
-5 -15 -3 -18 10 -13 9 3 19 2 22 -4 4 -5 3 -9 -2 -8 -30 5 -31 -4 -4 -32 28
-27 34 -29 49 -18 15 13 16 12 4 -3 -18 -22 -6 -44 14 -27 7 6 11 15 9 20 -3
4 4 6 15 4 11 -2 20 -3 20 -2 0 2 -25 28 -55 60 -30 31 -55 60 -55 65 0 4 180
187 400 407 l400 400 54 -54 c54 -54 56 -54 76 -36 16 15 18 21 7 34 -10 13
-10 14 3 6 21 -15 73 37 56 56 -8 9 -6 9 7 0 16 -12 22 -8 18 12 -1 5 3 6 8 3
5 -4 14 2 20 11 5 10 12 15 16 12 3 -4 -28 -41 -71 -84 l-77 -77 54 -54 54
-54 -404 -404 -404 -404 -50 48 c-27 26 -56 47 -65 46 -22 -4 -25 -46 -4 -68
14 -17 16 -17 28 0 13 16 14 16 7 -2 -5 -15 -3 -18 10 -13 9 3 19 1 23 -5 4
-6 3 -8 -2 -5 -6 3 -15 3 -21 -1 -8 -5 -4 -15 12 -30 l23 -23 153 151 153 151
228 -228 c125 -125 226 -228 225 -230 -1 -1 -56 -56 -121 -122 l-120 -121
-113 112 -113 113 122 125 c104 105 99 101 -29 -24 -129 -127 -150 -152 -142
-168 6 -10 14 -16 20 -13 5 4 8 1 7 -7 -2 -7 2 -12 9 -11 6 2 21 -13 33 -31
16 -27 26 -34 48 -31 22 2 24 1 10 -8 -14 -10 -13 -14 15 -41 18 -17 35 -29
40 -28 4 1 6 -3 5 -10 -2 -7 3 -12 10 -13 6 0 11 -2 10 -5 -6 -13 37 -48 55
-44 11 2 17 0 13 -3 -16 -17 -42 -9 -67 20 -16 18 -34 32 -41 32 -7 0 -13 5
-13 11 0 17 -138 154 -148 147 -6 -3 -7 -1 -4 4 4 6 0 16 -9 23 -17 15 -17 14
-197 -168 l-101 -102 -212 0 c-118 0 -215 4 -218 9 -4 5 105 120 240 255 l246
246 -43 44 c-23 25 -47 42 -53 39 -6 -3 -8 -3 -4 2 10 10 -263 285 -276 278
-5 -3 -6 -2 -3 3 3 6 -69 84 -159 174 l-166 163 -249 -249 -248 -248 -113 112
-113 112 249 249 249 249 -44 44 c-24 24 -48 43 -54 43 -5 0 -10 5 -10 11 0
17 -148 164 -158 157 -6 -3 -7 -1 -3 6 6 9 11 9 22 0 8 -6 14 -8 14 -4 0 4 6
2 13 -4 8 -6 18 -8 23 -4 5 4 4 2 -2 -5 -17 -20 23 -61 56 -57 21 2 22 1 8 -8
-14 -10 -13 -14 15 -41 18 -17 35 -29 39 -28 5 1 7 -1 7 -6 -4 -21 2 -24 14
-7 13 17 14 16 12 -6 -1 -14 10 -36 27 -54 l28 -30 152 152 152 152 108 -107
c59 -59 108 -111 108 -117z m-1045 85 l110 -110 -162 -162 -163 -163 -112 113
-113 112 160 160 c88 88 162 160 165 160 3 0 55 -50 115 -110z m4366 73 c13
-16 12 -17 -3 -4 -10 7 -18 15 -18 17 0 8 8 3 21 -13z m-3964 -28 c0 -8 -4
-12 -9 -9 -5 3 -6 10 -3 15 9 13 12 11 12 -6z m2744 -131 c57 -58 103 -110
101 -116 -2 -6 -58 -64 -124 -129 l-122 -119 -55 53 c-31 28 -81 78 -110 110
l-55 58 124 124 c69 69 127 125 131 125 3 0 52 -48 110 -106z m-4176 -13 c58
-57 104 -108 103 -113 -4 -11 -240 -248 -247 -248 -4 0 -56 50 -116 110 l-110
110 125 125 c69 69 128 124 132 123 4 -2 55 -50 113 -107z m470 -1 l110 -110
-245 -245 -245 -245 -114 114 -113 113 238 240 c132 132 244 240 249 241 6 1
60 -47 120 -108z m1739 -109 l109 -109 -126 -126 c-70 -69 -129 -126 -132
-126 -2 0 -55 50 -116 111 l-111 112 123 123 c68 68 129 124 134 124 6 0 59
-49 119 -109z m-952 -18 l108 -108 -162 -162 -162 -162 -108 107 -108 107 158
161 c86 89 159 162 162 163 2 0 53 -47 112 -106z m3153 -93 l110 -110 -403
-402 -402 -403 -110 110 c-61 60 -109 113 -108 117 4 11 791 798 798 798 3 0
55 -50 115 -110z m-848 -142 c123 -123 223 -226 223 -230 0 -3 -68 -75 -151
-159 l-151 -152 -111 112 -112 111 155 157 c85 87 151 154 145 150 -5 -4 -76
-74 -157 -155 l-148 -147 -110 110 c-61 60 -109 114 -107 119 3 9 289 304 296
305 3 1 105 -99 228 -221z m-4306 175 c13 -16 12 -17 -3 -4 -17 13 -22 21 -14
21 2 0 10 -8 17 -17z m3184 -153 l109 -110 -124 -125 c-69 -68 -128 -125 -132
-125 -10 0 -218 207 -218 217 0 9 242 253 250 253 3 0 55 -49 115 -110z m2203
-337 l-113 -113 -112 112 -113 113 112 112 113 113 112 -112 113 -113 -112
-112z m-4264 315 c-3 -5 40 -54 95 -111 l100 -102 -331 -332 -331 -331 -65 24
c-123 47 -134 54 -192 117 l-24 28 359 359 c208 207 367 358 377 357 9 -1 14
-5 12 -9z m1366 -1 c0 -2 -10 -12 -22 -23 l-23 -19 19 23 c18 21 26 27 26 19z
m-2148 -261 c-9 -12 -60 -63 -113 -114 l-96 -93 -114 111 -114 110 115 115
115 115 112 -112 c108 -108 111 -112 95 -132z m2097 34 c54 -55 104 -106 110
-114 11 -13 -28 -56 -243 -271 -148 -148 -254 -261 -250 -267 4 -7 2 -8 -4 -4
-7 4 -56 -38 -121 -103 l-109 -109 -72 8 -72 8 -69 68 c-38 38 -69 73 -69 78
0 8 789 805 798 806 1 0 47 -45 101 -100z m422 33 c13 -16 12 -17 -3 -4 -17
13 -22 21 -14 21 2 0 10 -8 17 -17z m-2467 -34 c-3 -5 -10 -7 -15 -3 -5 3 -7
10 -3 15 3 5 10 7 15 3 5 -3 7 -10 3 -15z m5229 -97 l107 -108 -120 -119
c-127 -126 -142 -140 -123 -114 10 13 -5 32 -92 119 -58 58 -105 109 -105 114
0 13 202 216 215 216 6 0 59 -49 118 -108z m-4178 -11 c81 -81 102 -108 95
-120 -5 -9 -61 -67 -125 -130 l-116 -115 -110 110 c-60 60 -108 113 -106 117
5 16 242 247 250 244 5 -1 55 -49 112 -106z m-972 -262 c-68 -67 -121 -125
-118 -129 3 -4 -8 -7 -23 -6 -50 3 -268 153 -259 179 1 5 68 76 147 157 l145
147 115 -114 115 -113 -122 -121z m-549 199 c-5 -7 -3 -8 6 -3 8 5 11 3 8 -6
-2 -7 -1 -18 3 -24 5 -5 29 -36 54 -68 40 -51 45 -61 33 -75 -12 -15 -11 -16
5 -3 16 12 21 11 47 -14 19 -18 30 -38 29 -54 -2 -70 96 -370 145 -442 65 -97
67 -104 17 -65 -7 5 -19 11 -26 12 -25 4 -205 105 -205 115 0 6 -4 8 -9 5 -5
-3 -15 2 -22 11 -12 14 -12 16 0 8 10 -5 12 -4 7 4 -4 6 -12 9 -17 5 -14 -8
-50 26 -42 40 3 6 3 8 -2 4 -11 -11 -36 12 -28 25 3 6 1 7 -6 3 -12 -8 -58 41
-53 56 1 5 -4 7 -10 6 -7 -2 -12 5 -12 14 1 10 -3 16 -10 15 -6 -1 -10 4 -8
11 1 6 -3 12 -9 12 -5 0 -7 5 -4 10 3 6 3 10 -2 10 -4 0 -18 22 -31 50 -24 53
-28 127 -9 185 16 45 58 106 70 98 6 -3 7 -1 3 5 -4 6 10 30 30 52 31 34 39
39 46 26 5 -9 6 -21 2 -28z m2734 -47 c42 -43 90 -92 106 -109 l29 -31 -152
-152 -152 -153 -112 112 -112 112 150 150 c82 82 153 150 158 150 4 0 42 -35
85 -79z m3611 30 c-23 -42 -33 -49 -45 -30 -6 10 55 83 64 75 2 -3 -6 -23 -19
-45z m-4306 -6 c-3 -9 -8 -14 -10 -11 -3 3 -2 9 2 15 9 16 15 13 8 -4z m2962
-135 l110 -110 -175 -176 c-96 -96 -182 -179 -191 -184 -8 -5 -95 -19 -193
-31 l-177 -22 -32 31 -32 32 285 285 c157 157 287 285 290 285 3 0 55 -50 115
-110z m930 1 c58 -58 104 -109 102 -115 -4 -13 -71 -46 -201 -98 l-98 -40 -69
68 c-38 38 -69 71 -69 75 0 10 214 219 222 217 4 -2 55 -50 113 -107z m-4179
-10 l106 -104 -128 -128 -129 -129 -110 110 -110 110 125 125 c69 68 128 124
132 122 4 -1 55 -49 114 -106z m3665 52 c13 -16 12 -17 -3 -4 -10 7 -18 15
-18 17 0 8 8 3 21 -13z m-2238 -18 c4 -8 1 -17 -5 -21 -7 -4 -8 -3 -4 4 19 31
-15 4 -90 -72 -79 -79 -83 -84 -65 -100 9 -9 21 -13 26 -9 4 5 5 2 1 -4 -4 -8
7 -25 29 -45 l36 -31 -153 -154 c-84 -84 -155 -153 -158 -153 -3 0 -29 23 -57
51 -47 46 -73 56 -73 28 0 -6 5 -7 12 -3 7 4 8 3 4 -4 -4 -6 -13 -9 -20 -6 -8
3 -25 -9 -41 -30 -33 -43 -72 -71 -72 -51 0 8 3 13 6 12 3 -1 18 10 32 25 20
20 24 29 15 39 -8 10 -6 10 7 0 16 -12 22 -8 18 12 -1 5 3 6 7 3 5 -3 17 3 26
13 17 18 15 22 -33 72 -28 29 -51 56 -51 59 0 2 68 73 151 156 l152 152 52
-56 c48 -49 55 -54 69 -40 11 12 12 18 3 29 -10 11 -9 11 6 0 16 -12 22 -8 18
12 -1 5 4 5 10 1 9 -5 10 -2 6 9 -3 9 -3 16 1 15 4 -1 17 4 29 12 18 12 20 17
10 30 -11 13 -10 13 6 1 15 -12 21 -9 18 12 0 4 2 6 7 5 4 -2 17 7 30 20 26
26 28 27 35 7z m3126 -72 c-9 -10 -9 -12 3 -8 12 5 18 -5 27 -39 6 -25 11 -54
11 -66 0 -12 4 -19 9 -15 5 3 19 -20 31 -51 l21 -56 -58 -54 c-32 -30 -64 -52
-71 -49 -7 3 -11 1 -7 -4 6 -10 -86 -81 -106 -81 -7 0 -9 -3 -6 -7 10 -9 -12
-22 -166 -102 -76 -40 -142 -69 -146 -66 -5 3 -12 -1 -15 -7 -3 -9 -9 -7 -20
7 -8 11 -19 25 -24 31 -29 33 -142 289 -142 320 0 3 6 4 12 2 7 -3 19 2 27 9
7 8 20 12 28 9 8 -3 12 -2 9 3 -3 5 14 12 39 15 24 4 47 11 50 17 4 5 11 7 16
4 5 -4 9 -2 9 3 0 12 86 43 94 34 3 -3 6 -1 6 5 0 9 51 36 70 38 3 1 20 9 38
18 18 10 38 15 44 11 7 -4 8 -3 4 4 -4 7 7 18 26 28 38 19 161 114 167 129 2
5 10 -8 18 -29 10 -29 10 -42 2 -53z m-3049 -52 c0 -5 -7 -12 -16 -15 -14 -5
-15 -4 -4 9 14 17 20 19 20 6z m1985 -142 c66 -67 114 -118 107 -114 -7 3 -19
2 -26 -4 -24 -20 -520 -116 -539 -104 -7 4 321 343 333 343 3 0 59 -55 125
-121z m-4069 -186 c-4 -4 -43 5 -211 48 -66 17 -139 36 -162 42 -24 6 -43 14
-43 17 0 4 35 42 78 83 l77 77 132 -132 c73 -73 131 -134 129 -135z m3019 76
l110 -110 -42 -38 c-41 -37 -43 -38 -165 -49 -174 -17 -173 -17 -218 25 -22
20 -40 40 -40 44 0 10 230 239 239 239 4 0 56 -50 116 -111z m-535 16 c13 -14
21 -25 18 -25 -2 0 -15 11 -28 25 -13 14 -21 25 -18 25 2 0 15 -11 28 -25z
m1724 -1 c3 -8 2 -12 -4 -9 -6 3 -10 10 -10 16 0 14 7 11 14 -7z m-3209 -3 c3
-5 2 -12 -3 -15 -5 -3 -9 1 -9 9 0 17 3 19 12 6z m132 -228 c-6 -5 -256 12
-345 24 l-44 6 93 93 93 93 104 -105 c57 -58 102 -108 99 -111z m1428 157 c10
-11 16 -20 13 -20 -3 0 -13 9 -23 20 -10 11 -16 20 -13 20 3 0 13 -9 23 -20z
m-2084 -37 c13 -16 12 -17 -3 -4 -17 13 -22 21 -14 21 2 0 10 -8 17 -17z
m2689 -48 c18 -19 20 -26 9 -29 -21 -7 -99 -12 -99 -7 0 7 53 61 60 61 4 0 17
-11 30 -25z m-523 0 c4 -4 3 -5 -4 -2 -6 4 -13 2 -15 -5 -3 -8 -6 -6 -10 4 -7
17 15 19 29 3z m-422 -24 c17 -15 39 -37 49 -49 l19 -22 -104 0 -103 0 49 50
c27 28 52 50 55 50 3 0 19 -13 35 -29z m79 -123 c12 -74 65 -219 116 -315 l48
-92 -344 -1 -343 0 -18 27 c-10 16 -23 34 -30 41 -7 7 -13 18 -13 23 0 5 -8
18 -17 29 -25 27 -111 190 -116 220 -2 14 -11 41 -20 60 -8 19 -13 38 -11 41
2 4 170 8 373 8 l368 2 7 -43z"/>
<path d="M9035 5380 c-3 -6 1 -7 9 -4 18 7 21 14 7 14 -6 0 -13 -4 -16 -10z"/>
<path d="M5914 5888 l-19 -23 23 19 c21 18 27 26 19 26 -2 0 -12 -10 -23 -22z"/>
<path d="M5854 5868 l-19 -23 23 19 c21 18 27 26 19 26 -2 0 -12 -10 -23 -22z"/>
<path d="M5829 5803 c-13 -16 -12 -17 4 -4 9 7 17 15 17 17 0 8 -8 3 -21 -13z"/>
<path d="M5769 5783 c-13 -16 -12 -17 4 -4 9 7 17 15 17 17 0 8 -8 3 -21 -13z"/>
<path d="M5749 5723 c-13 -16 -12 -17 4 -4 9 7 17 15 17 17 0 8 -8 3 -21 -13z"/>
<path d="M5689 5703 c-13 -16 -12 -17 4 -4 9 7 17 15 17 17 0 8 -8 3 -21 -13z"/>
<path d="M5669 5643 c-13 -16 -12 -17 4 -4 9 7 17 15 17 17 0 8 -8 3 -21 -13z"/>
<path d="M5609 5623 c-13 -16 -12 -17 4 -4 9 7 17 15 17 17 0 8 -8 3 -21 -13z"/>
<path d="M5589 5563 c-13 -16 -12 -17 4 -4 9 7 17 15 17 17 0 8 -8 3 -21 -13z"/>
<path d="M5529 5543 c-13 -16 -12 -17 4 -4 9 7 17 15 17 17 0 8 -8 3 -21 -13z"/>
<path d="M5509 5483 c-13 -16 -12 -17 4 -4 9 7 17 15 17 17 0 8 -8 3 -21 -13z"/>
<path d="M5449 5463 c-13 -16 -12 -17 4 -4 9 7 17 15 17 17 0 8 -8 3 -21 -13z"/>
<path d="M7049 5893 c-13 -16 -12 -17 4 -4 9 7 17 15 17 17 0 8 -8 3 -21 -13z"/>
<path d="M7100 5896 c0 -2 8 -10 18 -17 15 -13 16 -12 3 4 -13 16 -21 21 -21
13z"/>
<path d="M7170 5876 c0 -2 8 -10 18 -17 15 -13 16 -12 3 4 -13 16 -21 21 -21
13z"/>
<path d="M7139 5847 c6 -8 7 -18 3 -23 -4 -5 -3 -6 2 -2 5 4 16 2 25 -4 9 -7
5 0 -8 15 -25 27 -43 39 -22 14z"/>
<path d="M7219 5767 c6 -8 7 -18 3 -23 -4 -5 -3 -6 2 -2 5 4 16 2 25 -4 9 -7
5 0 -8 15 -25 27 -43 39 -22 14z"/>
<path d="M7299 5687 c6 -8 7 -18 3 -23 -4 -5 -3 -6 2 -2 5 4 16 2 25 -4 9 -7
5 0 -8 15 -25 27 -43 39 -22 14z"/>
<path d="M7379 5607 c6 -8 7 -18 3 -23 -4 -5 -3 -6 2 -2 5 4 16 2 25 -4 9 -7
5 0 -8 15 -25 27 -43 39 -22 14z"/>
<path d="M7458 5528 c9 -9 9 -15 -1 -27 -10 -14 -10 -14 4 -4 12 10 18 10 30
0 7 -6 3 0 -10 16 -14 15 -27 27 -30 27 -3 0 0 -5 7 -12z"/>
<path d="M7530 5435 c8 -11 15 -21 16 -23 1 -2 5 5 8 15 4 9 4 14 0 10 -4 -4
-14 -1 -23 6 -14 11 -15 10 -1 -8z"/>
<path d="M4735 4930 c-60 -60 -106 -110 -102 -110 4 0 57 50 118 110 61 61
107 110 102 110 -4 0 -58 -49 -118 -110z"/>
<path d="M4755 4630 c10 -11 20 -20 23 -20 3 0 -3 9 -13 20 -10 11 -20 20 -23
20 -3 0 3 -9 13 -20z"/>
<path d="M8660 5165 c-11 -13 -10 -14 4 -9 9 3 16 10 16 15 0 13 -6 11 -20 -6z"/>
<path d="M8611 5083 c-19 -18 -32 -35 -29 -38 2 -3 20 11 38 30 43 45 36 51
-9 8z"/>
<path d="M8520 4885 c13 -14 26 -25 28 -25 3 0 -5 11 -18 25 -13 14 -26 25
-28 25 -3 0 5 -11 18 -25z"/>
<path d="M8605 4800 c10 -11 20 -20 23 -20 3 0 -3 9 -13 20 -10 11 -20 20 -23
20 -3 0 3 -9 13 -20z"/>
<path d="M7765 5120 c-3 -6 1 -7 9 -4 18 7 21 14 7 14 -6 0 -13 -4 -16 -10z"/>
<path d="M6660 5066 c7 -7 13 -7 20 0 6 6 3 10 -10 10 -13 0 -16 -4 -10 -10z"/>
<path d="M3345 4000 c-16 -17 -16 -20 -3 -15 9 4 19 13 22 21 7 19 2 18 -19
-6z"/>
<path d="M8082 4554 c-12 -8 -27 -25 -33 -37 -8 -16 -1 -12 25 12 33 32 40 41
33 41 -1 0 -13 -7 -25 -16z"/>
<path d="M7842 4290 c-23 -23 -40 -45 -37 -50 3 -6 -1 -7 -9 -4 -25 10 -19
-10 12 -39 32 -30 44 -34 35 -12 -9 25 26 55 63 55 65 0 92 -72 44 -120 -19
-19 -19 -18 -47 3 l-28 22 23 -33 c22 -31 74 -69 57 -42 -4 7 8 28 31 51 28
29 46 39 69 39 31 0 55 15 55 35 0 6 -23 37 -51 68 -45 51 -55 57 -87 56 -21
0 -48 2 -62 5 -20 5 -34 -2 -68 -34z"/>
<path d="M7860 3885 c-69 -69 -121 -125 -117 -125 11 0 251 239 246 245 -3 2
-61 -52 -129 -120z"/>
<path d="M3309 2890 c-29 -31 -32 -45 -3 -18 15 15 26 29 23 31 -2 2 -11 -4
-20 -13z"/>
<path d="M3253 2503 c0 -9 4 -10 14 -2 7 6 13 12 13 14 0 1 -6 2 -13 2 -8 0
-14 -6 -14 -14z"/>
<path d="M3340 2421 c0 -6 4 -13 10 -16 6 -3 7 1 4 9 -7 18 -14 21 -14 7z"/>
<path d="M9140 2470 c-8 -5 -10 -10 -5 -10 6 0 17 5 25 10 8 5 11 10 5 10 -5
0 -17 -5 -25 -10z"/>
<path d="M9459 2233 c-13 -17 -13 -17 6 -3 11 8 22 16 24 17 2 2 0 3 -6 3 -6
0 -17 -8 -24 -17z"/>
<path d="M9330 2175 c-14 -8 -20 -14 -14 -15 5 0 19 7 30 15 24 18 16 19 -16
0z"/>
<path d="M9640 6986 c0 -2 8 -10 18 -17 15 -13 16 -12 3 4 -13 16 -21 21 -21
13z"/>
<path d="M3293 6915 c0 -38 2 -53 4 -32 2 20 2 52 0 70 -2 17 -4 1 -4 -38z"/>
<path d="M9603 6967 c0 -8 6 -14 14 -14 9 0 10 4 2 14 -6 7 -12 13 -14 13 -1
0 -2 -6 -2 -13z"/>
<path d="M9641 6937 c-8 -10 -7 -14 2 -14 8 0 14 6 14 14 0 7 -1 13 -2 13 -2
0 -8 -6 -14 -13z"/>
<path d="M9720 6906 c0 -2 8 -10 18 -17 15 -13 16 -12 3 4 -13 16 -21 21 -21
13z"/>
<path d="M9683 6887 c0 -8 6 -14 14 -14 9 0 10 4 2 14 -6 7 -12 13 -14 13 -1
0 -2 -6 -2 -13z"/>
<path d="M9721 6857 c-8 -10 -7 -14 2 -14 8 0 14 6 14 14 0 7 -1 13 -2 13 -2
0 -8 -6 -14 -13z"/>
<path d="M9800 6826 c0 -2 8 -10 18 -17 15 -13 16 -12 3 4 -13 16 -21 21 -21
13z"/>
<path d="M9763 6805 c0 -8 4 -12 9 -9 5 3 6 10 3 15 -9 13 -12 11 -12 -6z"/>
<path d="M9796 6772 c-3 -5 1 -9 9 -9 8 0 12 4 9 9 -3 4 -7 8 -9 8 -2 0 -6 -4
-9 -8z"/>
<path d="M9561 6664 c0 -11 3 -14 6 -6 3 7 2 16 -1 19 -3 4 -6 -2 -5 -13z"/>
<path d="M9691 6656 c-8 -10 -9 -16 -1 -21 5 -3 10 -5 11 -3 4 18 7 38 4 38
-1 0 -8 -6 -14 -14z"/>
<path d="M9920 6655 c0 -2 6 -8 13 -14 10 -8 14 -7 14 2 0 8 -6 14 -14 14 -7
0 -13 -1 -13 -2z"/>
<path d="M2850 6390 c8 -5 20 -10 25 -10 6 0 3 5 -5 10 -8 5 -19 10 -25 10 -5
0 -3 -5 5 -10z"/>
<path d="M2940 6366 c0 -2 8 -10 18 -17 15 -13 16 -12 3 4 -13 16 -21 21 -21
13z"/>
<path d="M10723 6215 c0 -8 4 -12 9 -9 5 3 6 10 3 15 -9 13 -12 11 -12 -6z"/>
<path d="M10440 6186 c0 -2 8 -10 18 -17 15 -13 16 -12 3 4 -13 16 -21 21 -21
13z"/>
<path d="M9796 6108 c3 -5 10 -6 15 -3 13 9 11 12 -6 12 -8 0 -12 -4 -9 -9z"/>
<path d="M10520 6106 c0 -2 8 -10 18 -17 15 -13 16 -12 3 4 -13 16 -21 21 -21
13z"/>
<path d="M9809 6063 c-13 -16 -12 -17 4 -4 16 13 21 21 13 21 -2 0 -10 -8 -17
-17z"/>
<path d="M10526 6061 c-3 -5 2 -15 12 -22 15 -12 16 -12 5 2 -7 9 -10 19 -6
22 3 4 4 7 0 7 -3 0 -8 -4 -11 -9z"/>
<path d="M10832 6044 c-7 -8 -8 -14 -3 -14 10 0 25 19 20 25 -2 1 -10 -3 -17
-11z"/>
<path d="M9685 6020 c2 -27 10 -33 12 -10 1 11 -2 22 -6 24 -4 3 -7 -4 -6 -14z"/>
<path d="M10600 6026 c0 -2 8 -10 18 -17 15 -13 16 -12 3 4 -13 16 -21 21 -21
13z"/>
<path d="M10563 6007 c0 -8 6 -14 14 -14 9 0 10 4 2 14 -6 7 -12 13 -14 13 -1
0 -2 -6 -2 -13z"/>
<path d="M9710 6001 c0 -10 19 -25 25 -20 1 2 -3 10 -11 17 -8 7 -14 8 -14 3z"/>
<path d="M10601 5977 c-8 -10 -7 -14 2 -14 8 0 14 6 14 14 0 7 -1 13 -2 13 -2
0 -8 -6 -14 -13z"/>
<path d="M9636 5948 c3 -5 10 -6 15 -3 13 9 11 12 -6 12 -8 0 -12 -4 -9 -9z"/>
<path d="M10680 5946 c0 -2 8 -10 18 -17 15 -13 16 -12 3 4 -13 16 -21 21 -21
13z"/>
<path d="M10643 5925 c0 -8 4 -12 9 -9 5 3 6 10 3 15 -9 13 -12 11 -12 -6z"/>
<path d="M9603 5915 c0 -8 4 -12 9 -9 5 3 6 10 3 15 -9 13 -12 11 -12 -6z"/>
<path d="M9649 5903 c-13 -16 -12 -17 4 -4 16 13 21 21 13 21 -2 0 -10 -8 -17
-17z"/>
<path d="M10681 5897 c-8 -10 -7 -14 2 -14 8 0 14 6 14 14 0 7 -1 13 -2 13 -2
0 -8 -6 -14 -13z"/>
<path d="M2216 5872 c-3 -5 1 -9 9 -9 8 0 12 4 9 9 -3 4 -7 8 -9 8 -2 0 -6 -4
-9 -8z"/>
<path d="M9550 5875 c0 -2 6 -8 13 -14 10 -8 14 -7 14 2 0 8 -6 14 -14 14 -7
0 -13 -1 -13 -2z"/>
<path d="M9523 5833 c0 -9 4 -10 14 -2 7 6 13 12 13 14 0 1 -6 2 -13 2 -8 0
-14 -6 -14 -14z"/>
<path d="M9569 5823 c-13 -16 -12 -17 4 -4 9 7 17 15 17 17 0 8 -8 3 -21 -13z"/>
<path d="M9470 5795 c0 -2 6 -8 13 -14 10 -8 14 -7 14 2 0 8 -6 14 -14 14 -7
0 -13 -1 -13 -2z"/>
<path d="M9443 5753 c0 -9 4 -10 14 -2 7 6 13 12 13 14 0 1 -6 2 -13 2 -8 0
-14 -6 -14 -14z"/>
<path d="M9489 5743 c-13 -16 -12 -17 4 -4 9 7 17 15 17 17 0 8 -8 3 -21 -13z"/>
<path d="M9390 5715 c0 -2 6 -8 13 -14 10 -8 14 -7 14 2 0 8 -6 14 -14 14 -7
0 -13 -1 -13 -2z"/>
<path d="M9363 5673 c0 -9 4 -10 14 -2 7 6 13 12 13 14 0 1 -6 2 -13 2 -8 0
-14 -6 -14 -14z"/>
<path d="M9409 5663 c-13 -16 -12 -17 4 -4 9 7 17 15 17 17 0 8 -8 3 -21 -13z"/>
<path d="M3660 5646 c0 -2 8 -10 18 -17 15 -13 16 -12 3 4 -13 16 -21 21 -21
13z"/>
<path d="M9310 5635 c0 -2 6 -8 13 -14 10 -8 14 -7 14 2 0 8 -6 14 -14 14 -7
0 -13 -1 -13 -2z"/>
<path d="M9283 5593 c0 -9 4 -10 14 -2 7 6 13 12 13 14 0 1 -6 2 -13 2 -8 0
-14 -6 -14 -14z"/>
<path d="M9329 5583 c-13 -16 -12 -17 4 -4 9 7 17 15 17 17 0 8 -8 3 -21 -13z"/>
<path d="M9220 5530 c6 -11 13 -20 16 -20 2 0 0 9 -6 20 -6 11 -13 20 -16 20
-2 0 0 -9 6 -20z"/>
<path d="M3750 5496 c0 -2 7 -7 16 -10 8 -3 12 -2 9 4 -6 10 -25 14 -25 6z"/>
<path d="M9775 2911 c-3 -7 0 -8 9 -5 9 3 17 1 17 -5 3 -23 7 -51 8 -57 0 -4
8 -1 16 6 8 7 15 11 15 9 0 -2 7 -22 15 -44 9 -26 14 -32 15 -19 0 24 -58 116
-77 121 -6 2 -14 -1 -18 -6z m50 -40 c3 -5 2 -12 -3 -15 -5 -3 -9 1 -9 9 0 17
3 19 12 6z"/>
<path d="M9868 2733 c6 -65 10 -70 11 -15 0 28 -3 52 -7 52 -4 0 -6 -17 -4
-37z"/>
<path d="M9775 2589 c-4 -6 -5 -12 -2 -15 2 -3 7 2 10 11 7 17 1 20 -8 4z"/>
<path d="M4668 2233 c7 -3 16 -2 19 1 4 3 -2 6 -13 5 -11 0 -14 -3 -6 -6z"/>
<path d="M7239 2087 c25 -27 43 -39 22 -14 -6 8 -7 18 -3 23 4 5 3 6 -2 2 -5
-4 -16 -2 -25 4 -9 7 -5 0 8 -15z"/>
<path d="M3902 2086 c7 -8 15 -12 17 -11 5 6 -10 25 -20 25 -5 0 -4 -6 3 -14z"/>
<path d="M3860 2086 c0 -3 9 -10 20 -16 11 -6 20 -8 20 -6 0 3 -9 10 -20 16
-11 6 -20 8 -20 6z"/>
<path d="M5819 2053 c-13 -16 -12 -17 4 -4 16 13 21 21 13 21 -2 0 -10 -8 -17
-17z"/>
<path d="M5759 2033 c-13 -16 -12 -17 4 -4 16 13 21 21 13 21 -2 0 -10 -8 -17
-17z"/>
<path d="M7319 2007 c25 -27 43 -39 22 -14 -6 8 -7 18 -3 23 4 5 3 6 -2 2 -5
-4 -16 -2 -25 4 -9 7 -5 0 8 -15z"/>
<path d="M5739 1973 c-13 -16 -12 -17 4 -4 16 13 21 21 13 21 -2 0 -10 -8 -17
-17z"/>
<path d="M5679 1953 c-13 -16 -12 -17 4 -4 16 13 21 21 13 21 -2 0 -10 -8 -17
-17z"/>
<path d="M4175 1951 c11 -4 80 -23 153 -41 105 -27 135 -31 145 -21 9 10 9 11
-5 6 -9 -4 -79 10 -156 29 -136 35 -178 43 -137 27z"/>
<path d="M8820 1945 c-19 -7 -28 -13 -20 -13 8 0 31 6 50 13 19 7 28 13 20 13
-8 0 -31 -6 -50 -13z"/>
<path d="M7399 1927 c25 -27 43 -39 22 -14 -6 8 -7 18 -3 23 4 5 3 6 -2 2 -5
-4 -16 -2 -25 4 -9 7 -5 0 8 -15z"/>
<path d="M8717 1918 c2 -5 -4 -8 -14 -9 -10 0 -13 -3 -7 -5 5 -2 28 2 50 10
l39 14 -36 -1 c-21 -1 -35 -5 -32 -9z"/>
<path d="M5659 1893 c-13 -16 -12 -17 4 -4 16 13 21 21 13 21 -2 0 -10 -8 -17
-17z"/>
<path d="M8658 1893 c7 -3 16 -2 19 1 4 3 -2 6 -13 5 -11 0 -14 -3 -6 -6z"/>
<path d="M5599 1873 c-13 -16 -12 -17 4 -4 16 13 21 21 13 21 -2 0 -10 -8 -17
-17z"/>
<path d="M8585 1880 c-25 -11 1 -11 35 0 20 6 21 8 5 8 -11 0 -29 -3 -40 -8z"/>
<path d="M4530 1865 c61 -16 98 -19 64 -5 -12 5 -43 11 -70 14 l-49 6 55 -15z"/>
<path d="M7479 1847 c25 -27 43 -39 22 -14 -6 8 -7 18 -3 23 4 5 3 6 -2 2 -5
-4 -16 -2 -25 4 -9 7 -5 0 8 -15z"/>
<path d="M4858 1843 c7 -3 16 -2 19 1 4 3 -2 6 -13 5 -11 0 -14 -3 -6 -6z"/>
<path d="M8355 1830 c-27 -7 -27 -8 -5 -8 14 0 39 4 55 8 27 7 27 8 5 8 -14 0
-38 -4 -55 -8z"/>
<path d="M5579 1813 c-13 -16 -12 -17 4 -4 16 13 21 21 13 21 -2 0 -10 -8 -17
-17z"/>
<path d="M8290 1820 c-12 -8 -11 -10 8 -10 12 0 22 5 22 10 0 13 -11 13 -30 0z"/>
<path d="M8233 1803 c9 -2 23 -2 30 0 6 3 -1 5 -18 5 -16 0 -22 -2 -12 -5z"/>
<path d="M4935 1790 c17 -4 44 -8 60 -8 25 0 24 2 -10 9 -51 10 -92 10 -50 -1z"/>
<path d="M8135 1790 c-27 -7 -27 -8 -5 -8 14 0 39 4 55 8 27 7 27 8 5 8 -14 0
-38 -4 -55 -8z"/>
<path d="M7559 1768 c14 -16 27 -28 30 -28 3 0 0 5 -7 12 -9 9 -9 15 1 27 10
14 10 14 -4 4 -12 -10 -18 -10 -30 0 -7 6 -3 0 10 -15z"/>
<path d="M5043 1773 c9 -2 25 -2 35 0 9 3 1 5 -18 5 -19 0 -27 -2 -17 -5z"/>
<path d="M7990 1770 c-11 -7 -6 -10 20 -10 26 0 31 3 20 10 -8 5 -17 10 -20
10 -3 0 -12 -5 -20 -10z"/>
<path d="M8063 1773 c9 -2 23 -2 30 0 6 3 -1 5 -18 5 -16 0 -22 -2 -12 -5z"/>
<path d="M5118 1763 c12 -2 30 -2 40 0 9 3 -1 5 -23 4 -22 0 -30 -2 -17 -4z"/>
<path d="M5203 1753 c15 -2 37 -2 50 0 12 2 0 4 -28 4 -27 0 -38 -2 -22 -4z"/>
<path d="M7908 1753 c12 -2 32 -2 45 0 12 2 2 4 -23 4 -25 0 -35 -2 -22 -4z"/>
<path d="M5293 1743 c9 -2 25 -2 35 0 9 3 1 5 -18 5 -19 0 -27 -2 -17 -5z"/>
<path d="M7828 1743 c12 -2 30 -2 40 0 9 3 -1 5 -23 4 -22 0 -30 -2 -17 -4z"/>
<path d="M6170 1735 c0 -2 6 -8 13 -14 10 -8 14 -7 14 2 0 8 -6 14 -14 14 -7
0 -13 -1 -13 -2z"/>
<path d="M7590 1719 c0 -5 11 -9 25 -9 14 0 25 2 25 4 0 2 -11 6 -25 8 -14 3
-25 1 -25 -3z"/>
<path d="M5563 1713 c15 -2 39 -2 55 0 15 2 2 4 -28 4 -30 0 -43 -2 -27 -4z"/>
<path d="M7558 1713 c7 -3 16 -2 19 1 4 3 -2 6 -13 5 -11 0 -14 -3 -6 -6z"/>
<path d="M5693 1703 c15 -2 37 -2 50 0 12 2 0 4 -28 4 -27 0 -38 -2 -22 -4z"/>
<path d="M7438 1703 c17 -2 47 -2 65 0 17 2 3 4 -33 4 -36 0 -50 -2 -32 -4z"/>
<path d="M5827 1693 c18 -2 50 -2 70 0 21 2 7 4 -32 4 -38 0 -55 -2 -38 -4z"/>
<path d="M7293 1693 c20 -2 54 -2 75 0 20 2 3 4 -38 4 -41 0 -58 -2 -37 -4z"/>
<path d="M6013 1683 c26 -2 67 -2 90 0 23 2 2 3 -48 3 -49 0 -68 -1 -42 -3z"/>
<path d="M7098 1683 c29 -2 74 -2 100 0 26 2 2 3 -53 3 -55 0 -76 -1 -47 -3z"/>
</g>
</svg>
