
<svg version="1.0" xmlns="http://www.w3.org/2000/svg"
 width="640.000000pt" height="640.000000pt" viewBox="0 0 640.000000 640.000000"
 preserveAspectRatio="xMidYMid meet">

<g transform="translate(0.000000,640.000000) scale(0.100000,-0.100000)"
fill="#000000" stroke="none">
<path d="M3173 5489 c-206 -34 -359 -188 -371 -374 l-5 -73 -51 5 c-190 19
-389 -112 -427 -281 l-11 -51 -82 -1 c-136 -3 -247 -55 -326 -156 -79 -100
-93 -250 -32 -362 l30 -56 -26 -14 c-65 -34 -110 -117 -97 -176 6 -25 3 -30
-12 -30 -36 0 -123 -52 -162 -97 -52 -59 -75 -127 -69 -207 3 -34 13 -77 22
-95 48 -93 157 -164 268 -177 l58 -7 0 -51 c0 -28 9 -69 19 -92 l19 -41 -39
-36 c-52 -49 -71 -89 -77 -162 -12 -152 109 -272 286 -283 l72 -5 0 -31 c1
-111 119 -204 245 -194 51 4 55 3 55 -16 0 -25 32 -80 69 -119 68 -73 214
-108 311 -73 41 15 46 15 55 0 45 -74 113 -114 192 -114 l50 0 -4 -277 c-6
-411 -21 -738 -38 -818 -8 -38 -15 -74 -15 -78 0 -4 17 -15 38 -25 30 -13 70
-16 220 -15 101 0 185 3 188 6 3 3 -2 65 -10 139 -24 202 -81 1058 -72 1075 1
1 26 -5 56 -13 110 -30 259 11 329 91 l30 34 51 -34 c67 -45 119 -58 206 -53
146 10 254 118 254 254 l0 39 60 1 c203 5 310 226 179 370 -19 20 -19 20 36
38 72 23 150 87 189 156 28 50 31 63 31 140 0 75 -3 91 -29 138 -17 29 -47 69
-68 88 -21 18 -38 38 -38 42 0 5 11 19 24 31 13 12 37 50 52 84 24 51 29 76
29 137 0 64 -5 83 -28 122 -25 43 -61 79 -102 103 -16 9 -14 15 16 64 31 50
34 61 34 135 0 94 -16 134 -77 195 -51 51 -118 84 -186 89 -44 4 -52 7 -46 21
27 66 20 118 -22 162 -35 37 -85 53 -144 46 l-47 -6 14 41 c50 146 -124 296
-271 234 -21 -9 -39 -16 -40 -16 0 0 -1 27 -1 59 0 45 -5 67 -21 88 -32 43
-80 66 -142 69 -56 3 -56 3 -59 36 -10 100 -66 207 -145 271 -60 49 -160 94
-238 106 -73 12 -84 12 -157 0z m168 -19 c188 -35 334 -185 355 -364 l7 -54
33 5 c119 19 217 -81 180 -186 -7 -23 -12 -41 -10 -41 2 0 26 9 54 20 88 35
163 23 224 -35 57 -55 69 -120 36 -194 -11 -24 -19 -46 -17 -48 3 -2 16 1 31
7 71 27 161 2 196 -55 25 -40 25 -58 1 -111 l-19 -41 52 -7 c167 -19 277 -124
279 -264 0 -62 -25 -131 -62 -169 -11 -12 -21 -26 -21 -30 0 -4 20 -19 44 -32
99 -52 141 -176 100 -298 -9 -26 -36 -75 -61 -107 l-46 -59 29 -21 c81 -59
117 -123 122 -222 5 -84 -15 -138 -73 -202 -39 -44 -143 -102 -181 -102 -37 0
-39 -19 -6 -53 79 -82 83 -188 9 -265 -51 -53 -102 -75 -182 -77 l-69 -1 3
-52 c11 -211 -275 -324 -447 -176 l-41 35 -42 -45 c-77 -84 -205 -122 -314
-94 -43 11 -51 17 -56 43 -10 46 -10 140 0 151 10 10 106 262 140 364 31 93
31 93 74 75 73 -30 206 -8 262 45 l22 21 38 -25 c76 -52 184 -59 267 -17 22
10 50 17 63 15 13 -2 27 1 30 6 4 7 -3 9 -19 6 -32 -6 -32 -5 0 25 20 19 25
20 22 7 -1 -9 6 -24 17 -32 l20 -15 -20 2 c-13 1 -19 -3 -17 -14 1 -9 -5 -22
-13 -29 -13 -11 -20 -11 -40 0 -14 7 -28 10 -31 7 -4 -4 7 -12 23 -19 25 -11
28 -15 17 -26 -7 -6 -20 -12 -27 -12 -8 0 -20 -6 -26 -14 -15 -17 -79 -26
-133 -18 -39 6 -35 8 37 13 l80 6 -80 0 c-86 1 -138 13 -115 28 9 5 15 4 18
-3 2 -7 8 -12 14 -12 6 0 8 7 4 15 -3 9 0 15 10 15 8 0 13 -4 10 -9 -6 -9 54
-25 62 -16 3 3 0 5 -6 5 -7 0 -12 4 -12 10 0 11 57 7 68 -5 4 -4 -3 -4 -15 -1
-14 5 -23 3 -23 -3 0 -16 32 -13 57 4 14 10 24 12 28 5 8 -13 25 -13 25 -1 0
5 -9 13 -20 16 -11 4 -18 11 -15 16 4 5 1 9 -5 9 -7 0 -10 -7 -7 -15 8 -19
-10 -30 -27 -16 -16 13 -146 7 -175 -9 -13 -6 -25 -10 -27 -7 -7 7 7 37 18 37
5 0 6 -4 3 -10 -7 -12 5 -13 22 -2 8 5 2 12 -19 20 -17 6 -28 9 -25 5 4 -3 2
-15 -4 -25 -8 -15 -14 -17 -22 -9 -14 14 -47 14 -47 1 0 -5 6 -10 13 -10 8 0
7 -3 -3 -9 -16 -11 -33 -4 -25 10 3 5 -2 6 -12 3 -16 -5 -16 -4 1 10 11 9 16
16 10 16 -5 0 -2 5 6 10 13 9 13 10 0 10 -18 0 -41 -14 -43 -25 -1 -5 -16 -10
-33 -11 -17 -1 -41 -5 -54 -9 -29 -9 -8 -25 35 -25 17 0 43 -7 59 -15 28 -15
31 -14 57 11 l27 26 59 -33 c49 -27 69 -32 128 -33 58 -1 79 4 125 27 54 27
97 76 105 119 3 12 7 23 10 26 2 3 0 11 -6 18 -7 8 -6 14 2 20 7 4 9 3 5 -4
-3 -6 7 -4 24 4 37 19 86 67 105 104 18 34 25 94 14 112 -7 10 -9 10 -10 -2
-1 -8 -1 -21 0 -29 2 -7 -3 -10 -9 -6 -6 4 -15 -6 -21 -25 -7 -20 -16 -29 -25
-26 -7 3 -16 1 -19 -3 -3 -5 1 -11 8 -14 19 -7 47 17 47 42 0 12 4 20 9 17 4
-3 4 -24 -2 -46 -9 -33 -15 -39 -32 -35 -11 3 -14 2 -7 -1 16 -7 -3 -34 -23
-34 -8 0 -22 -11 -33 -25 -21 -26 -34 -24 -25 3 3 13 1 12 -12 -3 -10 -12 -14
-30 -11 -46 3 -17 0 -26 -8 -26 -15 0 -14 43 2 74 7 12 12 31 12 41 0 13 16
29 45 47 83 48 123 145 95 230 -29 88 -130 156 -230 154 l-55 -2 60 -7 c33 -4
78 -16 101 -28 49 -25 101 -82 110 -120 3 -15 8 -33 10 -41 15 -48 -48 -146
-118 -182 -29 -15 -38 -25 -38 -45 0 -37 -33 -96 -69 -122 -90 -66 -214 -69
-305 -7 l-37 25 -33 -25 c-106 -81 -258 -73 -335 18 -38 44 -51 82 -51 143 0
43 -4 56 -17 61 -70 25 -115 97 -108 173 l4 45 -10 -48 c-8 -40 -6 -54 11 -96
12 -27 32 -54 46 -62 21 -11 22 -14 9 -21 -8 -5 -20 -6 -25 -3 -6 4 -5 -5 2
-19 6 -14 15 -26 20 -26 4 0 8 -7 8 -15 0 -8 8 -15 18 -15 14 0 15 2 2 10 -10
6 -11 10 -2 10 6 0 12 5 12 11 0 6 -7 9 -15 5 -8 -3 -15 -4 -15 -2 0 3 -3 13
-6 23 -6 15 -4 16 7 6 7 -7 18 -13 24 -13 5 0 3 4 -5 10 -18 11 -9 23 12 15
10 -4 13 -16 10 -36 -2 -16 1 -49 7 -74 10 -41 8 -54 -33 -175 l-43 -131 -8
173 c-4 95 -9 176 -11 179 -2 4 -25 -4 -51 -17 -27 -14 -64 -24 -90 -24 -36 0
-43 -3 -48 -22 -4 -19 -54 -387 -55 -407 0 -3 -27 60 -59 140 -32 80 -66 158
-76 173 -18 26 -17 27 7 54 40 42 50 69 47 127 -2 39 3 61 17 82 20 30 26 122
10 156 -5 10 -4 17 2 17 6 0 15 -15 20 -32 6 -18 13 -42 17 -53 6 -17 5 -17
-5 -5 -9 12 -10 11 -5 -7 7 -24 -18 -93 -34 -93 -5 0 -8 -10 -5 -22 14 -72 16
-126 4 -133 -9 -5 -10 -1 -6 16 l7 24 -15 -25 c-9 -16 -11 -30 -5 -42 12 -23
11 -31 -3 -22 -7 5 -9 2 -5 -9 4 -11 2 -14 -9 -10 -11 4 -12 9 -5 16 6 6 11
18 11 26 0 12 -3 11 -14 -4 -7 -11 -12 -31 -10 -45 1 -14 3 -28 3 -33 1 -4 10
-2 21 5 10 7 29 38 41 70 19 52 20 63 9 104 -12 42 -11 46 8 59 28 20 55 101
41 126 -5 11 -8 23 -5 27 3 4 0 14 -6 22 -8 12 -9 12 -4 -3 3 -11 2 -16 -4
-12 -6 3 -10 14 -10 24 0 22 -22 43 -41 39 -8 -2 -13 3 -11 10 1 6 -1 11 -5
10 -5 0 -26 7 -48 17 -63 28 -133 23 -198 -13 l-55 -31 -18 21 c-27 30 -93 58
-137 58 -73 0 -161 -56 -187 -121 -10 -23 -15 -27 -30 -19 -24 13 -91 13 -124
0 -14 -5 -40 -23 -57 -39 -26 -25 -31 -38 -32 -80 -2 -43 2 -54 28 -81 16 -17
40 -33 52 -36 17 -5 23 -13 23 -34 0 -16 11 -42 25 -58 l25 -30 -23 -16 c-12
-9 -17 -14 -10 -11 6 3 13 0 15 -7 3 -7 12 -9 22 -5 15 6 16 10 6 22 -14 16
-10 18 14 9 9 -3 16 -17 16 -31 0 -16 -4 -22 -12 -17 -7 4 -10 4 -6 0 3 -4 9
-6 12 -4 4 2 17 -15 31 -38 30 -50 85 -89 147 -104 98 -25 210 29 253 121 l23
51 56 3 c31 2 56 2 56 -1 0 -2 40 -135 88 -296 66 -217 88 -303 84 -330 l-4
-38 -49 0 c-78 0 -153 48 -178 112 l-10 26 -51 -19 c-61 -23 -140 -24 -203 -3
-65 22 -140 96 -163 159 l-17 51 -78 -1 c-70 0 -81 3 -120 30 -57 40 -84 87
-85 150 l-1 50 -60 -3 c-166 -10 -303 102 -303 246 0 70 19 111 76 168 46 46
46 48 31 74 -15 25 -39 139 -34 163 1 7 -24 14 -61 19 -80 9 -157 44 -204 93
-59 61 -73 98 -73 191 0 76 2 84 35 133 39 58 99 103 163 121 l42 13 0 56 c0
67 24 107 82 137 21 10 40 20 42 21 1 1 -13 34 -33 74 -31 62 -36 81 -36 144
0 121 48 214 144 280 76 51 128 67 235 70 l95 2 11 55 c21 104 97 192 213 246
51 24 69 27 164 27 l106 0 4 80 c2 62 9 92 31 136 83 170 288 266 488 229z
m-601 -2180 c22 -11 45 -29 52 -39 10 -17 13 -17 54 11 84 56 207 45 255 -24
31 -42 29 -109 -4 -154 -21 -31 -23 -39 -14 -73 9 -34 7 -45 -14 -88 -33 -64
-91 -97 -171 -98 -39 0 -58 -4 -58 -12 0 -32 -37 -86 -72 -104 -48 -25 -92
-24 -137 2 l-36 21 29 -27 c26 -24 36 -27 82 -23 66 6 61 -7 -11 -27 -116 -34
-235 29 -266 140 -6 22 -19 40 -34 47 -30 13 -50 42 -59 84 -5 22 -17 35 -41
47 -48 23 -69 59 -62 104 13 79 104 129 181 99 54 -21 53 -21 59 13 8 37 48
84 89 104 47 23 130 22 178 -3z m430 -192 c-6 -20 -18 -42 -28 -49 -15 -12
-16 -12 -6 1 6 8 17 32 24 53 15 48 23 44 10 -5z m-40 -213 c0 -12 -19 -12
-23 0 -4 9 -1 12 9 8 7 -3 14 -7 14 -8z m776 -171 c17 -14 17 -15 1 -10 -10 3
-25 6 -33 6 -9 0 -12 5 -9 10 9 14 18 13 41 -6z"/>
<path d="M3297 4783 c-68 -23 -133 -83 -154 -144 -15 -41 -22 -49 -43 -49 -32
0 -120 -41 -143 -68 l-18 -20 -61 31 c-83 43 -182 49 -247 15 -57 -29 -81 -63
-86 -119 l-4 -44 8 38 c18 86 82 132 181 132 63 0 135 -26 192 -67 15 -11 22
-8 50 19 43 40 70 54 126 62 43 6 45 8 59 54 29 100 133 163 256 155 101 -7
180 -59 218 -143 10 -22 19 -32 19 -22 0 56 -91 148 -171 171 -66 20 -120 19
-182 -1z"/>
<path d="M3800 4576 c98 -21 150 -68 150 -136 0 -35 -31 -94 -57 -109 -14 -7
-11 -14 19 -40 20 -17 41 -44 48 -61 12 -29 10 -100 -4 -131 -5 -12 1 -19 22
-28 37 -16 98 -78 111 -114 20 -52 13 -110 -19 -160 -16 -26 -34 -47 -40 -47
-5 0 -26 -22 -45 -49 -65 -90 -172 -122 -282 -85 -34 12 -48 13 -51 5 -7 -21
-85 -53 -142 -58 -103 -10 -203 55 -231 147 -14 46 -19 48 -44 20 -21 -24 -74
-40 -131 -40 -26 0 -47 -6 -55 -17 -37 -44 -157 -58 -218 -25 -34 18 -35 18
-78 -6 -34 -19 -58 -24 -112 -24 -189 0 -316 180 -243 344 l20 47 -37 24 c-41
27 -71 79 -71 121 0 57 40 113 116 164 16 10 15 11 -6 1 -49 -23 -81 -51 -100
-89 -23 -45 -25 -114 -6 -149 8 -14 12 -31 9 -38 -3 -7 0 -13 7 -13 6 0 8 5 4
12 -5 7 -3 8 6 3 10 -6 10 -11 -4 -20 -14 -11 -15 -13 -1 -18 9 -4 12 -13 8
-23 -6 -16 -7 -16 -15 2 -8 18 -8 18 -4 -1 2 -11 7 -29 12 -39 6 -15 4 -17 -7
-11 -12 8 -12 6 0 -8 15 -19 33 -13 24 8 -3 9 0 21 5 28 12 14 11 35 -1 55
-11 16 3 15 26 -2 17 -14 18 -16 2 -40 -25 -38 -31 -134 -12 -190 39 -113 144
-186 267 -186 43 0 80 7 109 21 42 18 47 19 83 4 72 -28 180 -14 229 31 10 9
40 17 68 18 27 2 68 12 90 23 l40 20 7 -30 c9 -41 83 -113 133 -128 l41 -12
-34 -23 c-31 -22 -66 -84 -66 -120 0 -8 11 -36 25 -63 13 -27 21 -52 17 -55
-3 -4 1 -4 11 0 11 4 17 1 17 -7 0 -7 3 -10 6 -7 3 4 -9 26 -26 50 -28 38 -31
49 -27 91 3 39 11 56 39 83 29 29 45 37 98 44 79 11 132 -8 176 -64 26 -33 34
-36 79 -36 28 -1 68 -7 90 -15 36 -13 41 -13 60 5 64 60 185 54 265 -14 14
-11 9 -4 -11 16 -36 36 -89 58 -142 58 -32 0 -94 -24 -118 -46 -15 -14 -22
-14 -63 0 -26 9 -64 16 -84 16 -31 0 -43 6 -61 31 -13 17 -40 39 -62 48 l-39
18 40 25 c36 24 41 25 77 12 87 -31 187 -10 247 51 162 164 186 213 154 306
-17 51 -48 88 -96 116 -32 19 -41 30 -36 42 25 57 2 149 -48 187 l-25 18 29
40 c62 86 23 189 -85 221 -28 8 -62 15 -76 14 -14 0 -1 -6 29 -13z m-1449
-609 c-10 -9 -11 -8 -5 6 3 10 9 15 12 12 3 -3 0 -11 -7 -18z"/>
<path d="M2279 4104 c-1 -5 -1 -16 0 -26 1 -9 -10 -28 -24 -42 -14 -14 -25
-33 -25 -43 0 -15 -2 -16 -11 -3 -8 12 -9 11 -6 -5 16 -65 17 -76 9 -71 -17
11 -25 79 -10 91 15 12 50 76 45 81 -2 2 -18 -15 -35 -38 -40 -52 -42 -97 -7
-153 l24 -40 -4 56 c-6 61 7 109 27 109 19 0 38 35 33 61 -5 24 -14 38 -16 23z"/>
<path d="M3762 4055 c-5 -81 -106 -129 -199 -94 -22 8 -26 8 -16 -2 7 -7 39
-15 71 -17 95 -7 158 39 149 110 l-4 33 -1 -30z"/>
<path d="M2691 4007 c-54 -87 -3 -218 89 -232 34 -5 34 -5 6 5 -40 13 -83 57
-97 98 -14 41 -4 110 18 134 9 10 14 21 11 24 -3 3 -15 -10 -27 -29z"/>
<path d="M3510 3932 c0 -7 -16 -29 -35 -51 -68 -75 -179 -80 -247 -11 -21 21
-38 33 -38 28 0 -21 72 -77 106 -84 58 -11 121 1 159 30 35 27 71 83 61 94 -3
3 -6 0 -6 -6z"/>
<path d="M2325 3841 c1 -47 -3 -68 -11 -68 -9 0 -10 7 -3 25 10 27 -1 42 -31
42 -12 -1 -12 -3 3 -14 13 -10 15 -19 9 -36 -10 -27 2 -138 17 -153 8 -8 10
-3 8 21 -2 18 -7 35 -10 39 -10 9 -8 51 2 57 16 10 33 -23 27 -51 -4 -18 -3
-23 2 -14 7 9 12 10 16 2 4 -6 12 -11 18 -11 6 0 4 8 -5 18 -19 21 -24 52 -13
71 6 9 5 12 -2 7 -7 -4 -10 7 -7 34 2 23 0 38 -6 35 -5 -4 -6 7 -3 23 3 16 2
32 -3 35 -4 3 -8 -25 -8 -62z"/>
<path d="M2364 3740 c3 -14 6 -28 6 -31 0 -4 7 -10 16 -13 8 -3 12 -2 9 4 -3
6 -13 22 -22 38 -14 26 -15 26 -9 2z"/>
<path d="M2310 3721 c0 -12 5 -21 10 -21 6 0 10 6 10 14 0 8 -4 18 -10 21 -5
3 -10 -3 -10 -14z"/>
<path d="M2436 3652 c17 -16 34 -36 37 -43 5 -12 6 -12 6 0 1 11 4 11 16 1 9
-7 17 -11 20 -9 2 2 -22 21 -53 42 -49 32 -52 34 -26 9z"/>
<path d="M2403 3642 c1 -14 5 -18 11 -12 7 7 6 14 -1 21 -9 9 -12 7 -10 -9z"/>
<path d="M3095 3649 c-4 -6 -5 -12 -2 -15 2 -3 7 2 10 11 7 17 1 20 -8 4z"/>
<path d="M2422 3618 c-8 -10 -4 -13 14 -14 14 -1 23 3 21 9 -5 17 -23 19 -35
5z"/>
<path d="M3944 3608 l-19 -23 23 19 c21 18 27 26 19 26 -2 0 -12 -10 -23 -22z"/>
<path d="M2785 3610 c-3 -6 1 -7 9 -4 18 7 21 14 7 14 -6 0 -13 -4 -16 -10z"/>
<path d="M2820 3598 c0 -7 5 -20 10 -28 8 -12 10 -9 10 13 0 15 -4 27 -10 27
-5 0 -10 -6 -10 -12z"/>
<path d="M2281 3591 c-12 -7 -9 -17 14 -53 30 -47 105 -107 105 -84 0 8 -11
21 -25 30 -14 10 -23 22 -19 28 5 7 0 9 -14 6 -17 -5 -23 -1 -28 18 -3 13 -10
24 -15 24 -5 0 -9 5 -9 10 0 6 7 10 15 10 8 0 15 5 15 10 0 12 -20 13 -39 1z"/>
<path d="M2570 3570 c8 -5 21 -10 28 -10 16 0 42 -24 42 -38 0 -13 43 -24 50
-13 3 4 12 11 20 14 8 3 0 6 -17 6 -22 1 -33 6 -33 16 0 8 -9 15 -20 15 -11 0
-20 5 -20 10 0 6 -15 10 -32 10 -25 0 -29 -3 -18 -10z"/>
<path d="M2668 3568 c8 -8 17 -8 34 0 22 10 21 11 -11 11 -27 1 -32 -2 -23
-11z"/>
<path d="M2802 3550 c0 -19 2 -27 5 -17 2 9 2 25 0 35 -3 9 -5 1 -5 -18z"/>
<path d="M2573 3523 c9 -2 25 -2 35 0 9 3 1 5 -18 5 -19 0 -27 -2 -17 -5z"/>
<path d="M2835 3519 c-4 -6 -5 -12 -2 -15 2 -3 7 2 10 11 7 17 1 20 -8 4z"/>
<path d="M2385 3500 c3 -5 8 -10 11 -10 2 0 4 5 4 10 0 6 -5 10 -11 10 -5 0
-7 -4 -4 -10z"/>
<path d="M2622 3469 c-13 -5 -31 -16 -40 -25 -13 -13 -30 -15 -91 -11 -63 5
-70 4 -41 -5 71 -21 210 7 210 42 0 12 -7 12 -38 -1z"/>
<path d="M2690 3460 c14 -10 27 -17 29 -15 8 8 -22 35 -38 35 -12 0 -10 -5 9
-20z"/>
<path d="M2858 3460 c-16 -25 -45 -26 -51 -2 -4 13 -5 11 -6 -5 -1 -25 7 -27
58 -17 21 5 31 12 31 25 0 25 -17 24 -32 -1z"/>
<path d="M2758 3433 c6 -2 18 -2 25 0 6 3 1 5 -13 5 -14 0 -19 -2 -12 -5z"/>
<path d="M2183 3112 c-27 -32 -38 -79 -28 -123 7 -30 9 -31 20 -15 12 16 14
16 22 1 5 -9 16 -13 25 -10 14 6 13 12 -9 51 -22 39 -23 48 -13 80 15 45 11
49 -17 16z m-3 -41 c-12 -24 -14 -53 -2 -33 6 8 14 1 26 -24 9 -20 14 -39 12
-42 -3 -3 -12 10 -20 29 -13 28 -15 30 -16 12 0 -13 -4 -23 -9 -23 -11 0 -9
70 3 88 12 20 18 14 6 -7z"/>
<path d="M3430 3056 c0 -2 7 -7 16 -10 8 -3 12 -2 9 4 -6 10 -25 14 -25 6z"/>
<path d="M4786 3024 c-4 -9 -4 -19 -1 -22 2 -3 7 3 11 12 4 9 4 19 1 22 -2 3
-7 -3 -11 -12z"/>
<path d="M4083 2999 c-21 -21 -66 -27 -114 -15 -13 3 -9 -1 10 -10 41 -19 81
-11 111 22 29 29 23 32 -7 3z"/>
<path d="M2180 2959 c0 -17 54 -52 64 -42 10 11 26 -18 26 -47 0 -38 36 -90
74 -105 24 -10 34 -21 34 -37 0 -26 24 -85 44 -108 24 -28 79 -70 92 -70 24 0
13 29 -13 35 -40 10 -63 35 -50 52 10 11 8 12 -6 7 -12 -5 -16 -4 -11 4 3 6 2
13 -4 17 -5 3 -10 0 -10 -7 0 -9 -3 -9 -10 2 -13 21 -12 39 1 20 9 -12 10 -12
5 3 -3 10 -6 21 -6 23 0 3 -4 2 -10 -1 -6 -4 -10 6 -10 24 0 25 -6 33 -35 47
-39 18 -55 36 -37 42 7 2 9 9 5 15 -4 7 0 8 13 4 18 -7 18 -6 -1 8 -19 15 -20
14 -26 -7 -6 -23 -8 -22 -23 26 -5 13 -2 17 9 12 8 -3 15 -1 15 4 0 5 -8 11
-17 13 -17 4 -17 5 0 6 10 0 15 6 12 11 -4 6 -11 8 -16 5 -5 -4 -9 -1 -9 4 0
6 -5 11 -11 11 -7 0 -18 8 -25 18 -13 16 -14 16 -7 -2 7 -21 -6 -17 -39 12
-15 13 -18 13 -18 1z"/>
<path d="M3737 2958 c7 -8 31 -20 53 -27 46 -14 98 -2 122 27 12 14 10 14 -12
-1 -31 -22 -101 -22 -143 0 -26 13 -30 13 -20 1z"/>
<path d="M4396 2947 c3 -10 9 -15 12 -12 3 3 0 11 -7 18 -10 9 -11 8 -5 -6z"/>
<path d="M2270 2940 c8 -5 20 -10 25 -10 6 0 3 5 -5 10 -8 5 -19 10 -25 10 -5
0 -3 -5 5 -10z"/>
<path d="M1835 2919 c-4 -6 -5 -12 -2 -15 2 -3 7 2 10 11 7 17 1 20 -8 4z"/>
<path d="M1870 2821 c0 -6 4 -13 10 -16 6 -3 7 1 4 9 -7 18 -14 21 -14 7z"/>
<path d="M1905 2789 c-3 -3 3 -13 13 -20 9 -7 14 -9 10 -5 -4 5 -3 14 2 21 7
8 5 12 -6 12 -8 0 -17 -4 -19 -8z"/>
<path d="M3950 2792 c0 -12 19 -26 26 -19 2 2 -2 10 -11 17 -9 8 -15 8 -15 2z"/>
<path d="M1945 2780 c-3 -5 -1 -10 4 -10 6 0 11 5 11 10 0 6 -2 10 -4 10 -3 0
-8 -4 -11 -10z"/>
<path d="M2913 2783 c-31 -3 -44 -9 -48 -24 -4 -10 -10 -19 -15 -19 -12 0 -41
-60 -34 -71 3 -5 -2 -9 -11 -9 -10 0 -13 5 -9 13 4 6 -5 1 -19 -12 -31 -28
-32 -31 -11 -31 8 0 12 5 9 10 -4 6 6 10 22 10 l28 -1 -25 -19 c-14 -11 -32
-27 -41 -35 -21 -20 -26 -19 -32 5 -4 16 -11 19 -29 15 -13 -3 -33 -7 -45 -8
-12 0 -19 -5 -16 -9 2 -5 13 -6 22 -3 10 3 29 1 42 -4 14 -6 18 -10 9 -11 -9
-1 -6 -5 8 -11 18 -7 28 -4 44 11 12 11 25 20 29 20 12 0 60 81 53 91 -4 6 -3
14 2 18 5 3 15 18 21 34 11 23 19 27 53 27 22 0 40 5 40 10 0 6 -1 9 -2 8 -2
-1 -22 -3 -45 -5z m-73 -97 c0 -3 -4 -8 -10 -11 -5 -3 -10 -1 -10 4 0 6 5 11
10 11 6 0 10 -2 10 -4z"/>
<path d="M4299 2783 c19 -4 21 -7 10 -14 -11 -7 -11 -9 4 -9 9 0 17 7 17 15 0
10 -9 15 -27 14 -26 -2 -27 -2 -4 -6z"/>
<path d="M2920 2750 l-45 -7 48 -1 c26 -1 47 3 47 8 0 6 -1 9 -2 8 -2 0 -23
-4 -48 -8z"/>
<path d="M3650 2740 c0 -5 -7 -10 -15 -10 -8 0 -15 -8 -14 -17 0 -11 3 -13 6
-5 2 6 9 12 14 12 4 0 6 -6 3 -14 -3 -7 7 -21 23 -32 31 -20 143 -26 198 -10
27 7 28 9 10 16 -28 12 -37 12 -30 0 8 -14 -113 -13 -153 1 -16 5 -32 19 -35
30 -7 25 10 25 18 -1 4 -11 15 -20 26 -20 11 0 17 5 14 10 -3 6 -13 10 -21 10
-8 0 -14 4 -14 9 0 6 12 6 32 0 43 -12 48 -11 48 4 0 10 -13 13 -45 11 -25 -1
-45 2 -45 7 0 5 -4 9 -10 9 -5 0 -10 -4 -10 -10z"/>
<path d="M2400 2737 c0 -4 5 -13 10 -20 6 -7 19 -23 29 -37 11 -14 21 -23 24
-20 3 3 -10 23 -29 45 -18 22 -34 36 -34 32z"/>
<path d="M3735 2690 c-3 -5 1 -10 9 -10 9 0 16 5 16 10 0 6 -4 10 -9 10 -6 0
-13 -4 -16 -10z"/>
<path d="M2481 2653 c0 -6 -3 -18 -6 -25 -7 -18 92 -41 115 -27 12 8 11 9 -5
7 -32 -3 -93 22 -98 40 -3 9 -5 12 -6 5z"/>
<path d="M2601 2591 c-12 -8 -12 -10 0 -14 8 -2 2 -3 -13 -1 -20 2 -28 -1 -28
-11 0 -12 7 -14 28 -8 15 4 41 7 59 7 17 0 29 4 27 8 -3 4 -13 8 -23 8 -9 0
-21 4 -27 10 -5 5 -15 6 -23 1z"/>
<path d="M2210 2581 c0 -6 4 -13 10 -16 6 -3 7 1 4 9 -7 18 -14 21 -14 7z"/>
<path d="M4569 2573 c-1 -7 -2 -17 -3 -23 0 -5 -10 -16 -21 -25 -20 -16 -20
-16 1 -6 32 15 44 34 34 51 -7 11 -10 11 -11 3z"/>
<path d="M2640 2546 c0 -5 -23 -6 -51 -4 -32 3 -47 2 -40 -5 12 -12 147 -5
161 9 7 7 -3 10 -30 9 -22 0 -40 -4 -40 -9z"/>
<path d="M2768 2383 c7 -3 16 -2 19 1 4 3 -2 6 -13 5 -11 0 -14 -3 -6 -6z"/>
<path d="M2630 2355 c0 -10 72 -76 78 -71 6 7 -57 76 -70 76 -4 0 -8 -2 -8 -5z"/>
<path d="M2598 2322 c-26 -5 -22 -15 15 -36 l32 -18 -25 21 c-14 11 -20 21
-13 21 22 0 43 -12 43 -26 0 -8 5 -14 10 -14 14 0 13 13 -2 32 -16 18 -37 26
-60 20z"/>
<path d="M3891 2304 c0 -11 3 -14 6 -6 3 7 2 16 -1 19 -3 4 -6 -2 -5 -13z"/>
<path d="M2840 2280 c-8 -5 -10 -10 -5 -10 6 0 17 5 25 10 8 5 11 10 5 10 -5
0 -17 -5 -25 -10z"/>
<path d="M4270 2270 c-9 -6 -10 -10 -3 -10 6 0 15 5 18 10 8 12 4 12 -15 0z"/>
<path d="M2946 2231 c-3 -5 2 -15 12 -22 15 -12 16 -12 5 2 -7 9 -10 19 -6 22
3 4 4 7 0 7 -3 0 -8 -4 -11 -9z"/>
<path d="M3779 2238 c-5 -18 -6 -38 -1 -34 7 8 12 36 6 36 -2 0 -4 -1 -5 -2z"/>
<path d="M2547 2844 c17 -44 131 -59 177 -23 14 11 26 25 26 31 0 5 -14 -2
-31 -16 -40 -34 -93 -35 -142 -2 -23 16 -34 19 -30 10z"/>
</g>
</svg>
